<svg width="393" height="852" viewBox="0 0 393 852" fill="none" xmlns="http://www.w3.org/2000/svg">
<g clip-path="url(#clip0_56_18781)">
<rect width="393" height="852" fill="#8BB5DB"/>
<path d="M27.8545 258.232C-17.3524 258.232 -54 221.585 -54 176.378C-53.9999 142.665 -33.6184 113.714 -4.50585 101.171L-4.50584 -17L409.494 -17L409.494 97.9658C432.067 100.693 449.559 119.913 449.56 143.222C449.56 168.4 429.148 188.812 403.97 188.812C386.997 188.812 372.192 179.536 364.344 165.778C357.222 169.25 349.221 171.197 340.766 171.197C335.792 171.197 330.975 170.522 326.402 169.261C312.486 188.63 289.762 201.245 264.092 201.245C250.02 201.245 236.834 197.453 225.498 190.837C218.681 204.384 204.655 213.679 188.455 213.679C176.472 213.679 165.678 208.591 158.111 200.46C147.804 215.924 130.205 226.112 110.227 226.112C104.769 226.112 99.4887 225.352 94.4863 223.932C79.6399 244.697 55.3279 258.232 27.8545 258.232ZM161.049 141.149L160.764 141.149C160.794 141.206 160.826 141.261 160.856 141.317C160.92 141.261 160.985 141.206 161.049 141.149Z" fill="#6392BE"/>
<circle cx="68.5526" cy="72.7455" r="25.37" fill="#D3D4DE"/>
<circle cx="59.7907" cy="61.0411" r="4.65732" fill="#C5C6D0"/>
<circle cx="79.0209" cy="72.5313" r="6.75236" fill="#F1F1F3"/>
<path d="M82.3033 87.446C84.3276 87.446 86.1429 88.3378 87.3805 89.7487C84.381 93.0679 80.5167 95.59 76.1422 96.9596C75.7638 96.1165 75.5514 95.182 75.5514 94.1979C75.5516 90.469 78.5744 87.4462 82.3033 87.446Z" fill="#C5C6D0"/>
<circle cx="62.8095" cy="88.7398" r="3.01873" fill="#C5C6D0"/>
<circle cx="85.7733" cy="63.37" r="25.37" fill="#6392BE"/>
<path d="M19.9675 107.045C19.9675 107.045 21.3394 114.179 27.4882 112.563C27.4882 112.563 22.3299 116.514 24.3108 121.186C24.3108 121.186 21.9591 115.9 16.6683 116.16C16.6683 116.16 21.2176 114.671 19.9675 107.045Z" fill="#FCFCFC"/>
<path d="M358.235 54.3132C358.235 54.3132 359.607 61.4471 365.755 59.8316C365.755 59.8316 360.597 63.7827 362.578 68.4539C362.578 68.4539 360.226 63.1684 354.935 63.428C354.935 63.428 359.485 61.9397 358.235 54.3132Z" fill="#6D75B0"/>
<path d="M20.1898 167.282C20.1898 167.282 21.1295 172.168 25.3409 171.062C25.3409 171.062 21.8079 173.768 23.1646 176.968C23.1646 176.968 21.5539 173.347 17.9301 173.525C17.9301 173.525 21.0461 172.506 20.1898 167.282Z" fill="#6D75B0"/>
<path d="M380.578 105.299C380.578 105.299 376.369 107.451 378.494 110.999C378.494 110.999 375.09 108.493 372.531 110.578C372.531 110.578 375.406 108.15 374.284 104.891C374.284 104.891 376.039 107.464 380.578 105.299Z" fill="white"/>
<path d="M33.517 157.264C33.517 157.264 34.4566 162.15 38.6681 161.043C38.6681 161.043 35.135 163.749 36.4918 166.949C36.4918 166.949 34.8811 163.329 31.2573 163.506C31.2573 163.506 34.3732 162.487 33.517 157.264Z" fill="#6D75B0"/>
<path d="M400.449 136.947C400.449 136.947 396.241 139.098 398.366 142.647C398.366 142.647 394.962 140.141 392.402 142.226C392.402 142.226 395.278 139.798 394.156 136.539C394.156 136.539 395.911 139.112 400.449 136.947Z" fill="#6D75B0"/>
<path d="M-26.29 541.223C-19.1005 539.227 -17.1028 553.207 -13.5078 559.598C-9.91294 565.989 -11.91 563.992 -13.5078 565.989C-15.1051 567.987 -5.12092 575.575 -7.11621 577.174C-9.11349 578.772 -13.9078 574.778 -8.71484 582.367C-3.52219 589.957 -3.52142 591.555 -5.11914 594.351C-6.71689 597.147 1.67183 602.34 2.07129 604.736C2.47036 607.133 -8.71391 605.535 -5.11914 608.331C-3.99307 609.207 -0.343913 614.194 4.24219 620.79C6.55082 614.506 10.957 607.142 11.2588 605.935C11.6578 604.337 8.06291 603.139 7.66309 601.142C7.26363 599.144 11.2586 595.15 12.457 593.552C13.6548 591.954 9.66209 592.753 9.66113 591.555C9.66113 590.356 10.8592 586.761 14.0547 583.166C17.2501 579.571 16.4518 575.176 20.0469 571.581C22.4428 571.582 22.8428 575.576 24.041 579.57C25.2393 583.564 32.4272 589.555 31.6309 590.356C30.832 591.154 28.4357 589.957 27.6367 591.555C26.8385 593.153 33.6271 597.146 33.6279 599.144C33.6279 601.141 27.6365 601.142 30.0332 603.139C32.43 605.137 40.0168 619.513 38.8213 619.517C37.6229 619.517 36.4246 619.916 38.8213 625.109C39.3323 626.216 39.6253 628.238 39.7686 630.758C42.5364 629.835 43.5405 629.535 43.2148 627.905C42.8154 625.908 45.2128 624.709 46.4111 622.712C47.609 620.715 44.0145 619.516 46.4111 617.918C48.8072 616.321 49.207 615.522 49.207 613.125C49.207 610.728 46.4108 608.731 49.207 606.334C52.0028 603.938 52.8016 603.139 52.4023 601.142C52.0029 599.145 50.805 596.748 52.4023 596.747C54.0002 596.748 56.3974 599.544 57.1963 602.34C57.9948 605.136 55.1991 608.732 57.1963 609.53C59.1933 610.33 61.5893 614.323 60.791 615.122C59.9924 615.921 64.3867 618.718 63.9873 621.114C63.6353 623.226 62.0435 625.647 63.3096 627.286C65.3153 625.277 68.4252 622.269 67.1826 620.715C65.5848 618.718 68.3807 618.318 71.9756 613.525C75.5703 608.731 73.5734 610.328 71.9756 607.932C70.3782 605.535 72.3752 604.736 75.5703 600.742C78.7655 596.748 75.9698 598.744 75.5703 595.948C75.171 593.152 79.9648 592.752 80.3643 588.359C80.684 584.843 84.4924 580.503 86.3564 578.772C89.8724 578.779 102.468 630.171 108.326 655.867L67.9805 657.606L67.582 663.856L28.835 655.867C28.9194 655.43 29.0109 654.965 29.1104 654.48L2.07129 655.068C2.07804 654.69 2.08692 654.289 2.09473 653.869H-33.4453L-31.084 658.663L-93 653.47L-91.8018 611.128C-88.6061 607.932 -82.4544 601.141 -83.4131 599.543C-84.6114 597.546 -85.4103 595.548 -82.2148 587.56C-79.0192 579.571 -77.8204 574.777 -77.4209 571.581C-77.0215 568.386 -77.0216 566.788 -75.0244 569.185C-73.0272 571.581 -71.0304 575.576 -71.0303 581.568C-71.0303 587.559 -69.8311 597.147 -69.0322 596.747C-68.2332 596.345 -66.6356 586.761 -64.2393 587.56C-61.8425 588.359 -62.641 593.951 -59.4453 596.747C-56.2497 599.543 -51.4568 605.535 -53.4541 605.935C-55.4513 606.334 -57.049 607.134 -54.6523 612.726C-53.3404 615.787 -50.2061 621.514 -47.5059 626.277L-40.6709 617.519C-41.7361 617.119 -44.3464 615.921 -46.2637 614.323C-48.18 612.725 -40.4039 601.674 -36.2764 596.348C-39.8715 595.283 -46.4227 592.833 -43.8662 591.555C-40.6705 589.956 -35.0782 574.777 -33.4805 571.581C-31.8834 568.385 -35.8772 562.793 -31.4834 559.598C-27.9684 557.041 -26.5563 546.282 -26.29 541.223Z" fill="#6392BE"/>
<path d="M371.567 544.019C374.763 544.019 377.959 554.405 380.755 559.598C383.551 564.791 384.35 563.592 386.348 564.791C388.345 565.989 391.94 572.78 388.744 572.38C385.549 571.981 384.75 573.179 383.152 575.576C381.554 577.972 392.739 583.565 395.535 589.158C398.331 594.75 392.739 591.954 388.744 591.554C384.75 591.155 387.946 594.351 392.739 598.745C397.532 603.139 398.731 603.938 391.94 605.536C385.15 607.133 391.94 607.932 393.937 612.326C395.935 616.72 395.136 615.123 391.94 615.522C388.745 615.921 397.133 621.514 400.329 624.31C403.524 627.106 402.725 629.103 400.329 630.301C399.93 630.501 400.161 631.475 400.831 632.979C401.8 631.47 402.716 630.373 403.524 629.902C408.317 627.106 401.528 625.508 403.524 623.511C405.522 621.514 409.916 619.916 409.916 617.918C409.916 615.921 406.32 620.315 406.72 617.918C407.119 615.522 409.916 610.329 412.712 608.332C415.508 606.334 408.718 607.133 409.916 605.136C411.114 603.139 414.71 600.742 417.106 596.748C419.503 592.753 419.503 590.356 420.701 590.356C421.899 590.356 423.098 596.747 425.494 598.345C427.891 599.943 423.897 601.94 426.693 603.538C429.489 605.136 435.88 610.329 433.483 611.127C431.086 611.926 424.696 611.527 426.693 612.326C428.691 613.125 436.28 618.718 435.481 623.511C434.683 628.304 435.881 629.103 437.079 631.1C438.277 633.097 437.078 636.294 434.282 634.696C432.667 633.773 434.565 637.514 436.697 641.169C439.219 638.048 441.858 635.344 444.268 633.897C452.257 629.104 441.474 634.296 441.872 632.299C442.271 630.302 447.864 626.707 448.264 624.31C448.663 621.913 444.269 627.505 444.268 625.508C444.268 623.511 446.666 620.715 448.264 616.72C449.861 612.726 449.462 604.338 451.858 604.337C454.255 604.337 454.655 608.731 455.454 611.527C456.253 614.323 461.045 619.116 461.046 621.114C461.046 623.111 457.451 622.313 460.247 624.709C463.043 627.106 459.848 629.103 461.046 630.701C462.244 632.298 469.035 636.293 465.041 638.291C461.046 640.288 461.446 645.481 464.242 647.478C466.479 649.076 468.635 655.067 469.434 657.864L440.077 656.766L440.274 659.063L416.284 657.708C416.71 658.322 417.119 658.909 417.506 659.462L363.872 658.649L366.774 667.85L321.236 662.658L319.239 652.671L321.236 611.527C324.166 606.6 329.864 596.748 329.225 596.748C328.427 596.748 329.225 593.951 330.424 593.152C331.622 592.353 331.223 588.359 328.826 589.957C326.429 591.554 327.228 586.361 329.225 585.163C331.223 583.964 332.82 577.173 333.22 575.576C333.619 573.978 335.218 575.177 335.617 577.174C336.017 579.171 339.212 581.568 340.809 582.766C342.407 583.964 343.606 586.76 342.408 586.362C341.21 585.962 338.413 585.962 340.809 588.359C343.206 590.756 345.603 595.948 345.603 598.345C345.603 600.742 342.009 598.744 343.606 600.342C345.204 601.94 346.802 605.136 345.603 608.332C345.045 609.821 346.089 611.652 347.451 613.212C349.629 608.727 351.195 605.099 351.195 603.938C351.195 600.343 348 601.541 347.201 598.745C346.402 595.949 352.792 591.555 353.991 587.959C355.189 584.364 351.595 586.761 351.195 582.766C350.796 578.772 358.385 573.179 360.383 570.383C362.38 567.587 357.587 567.187 356.788 564.791C355.989 562.394 363.179 557.201 366.375 554.405C369.57 551.608 368.372 544.019 371.567 544.019Z" fill="#6392BE"/>
<path d="M-87.4077 651.473C-87.4077 651.473 -51.1356 649.39 -27.8887 649.875C-6.32 650.325 5.70614 654.835 27.2363 653.47C35.5403 652.944 38.4211 651.073 48.4075 651.073C64.7852 653.47 61.4054 655.169 69.9782 656.666C95.1962 661.068 109.806 653.362 135.382 652.272C160.365 651.206 174.397 650.944 199.402 651.073C217.406 652.633 227.494 653.575 245.504 655.068C263.218 656.537 273.103 658.634 290.878 658.663C309.028 658.693 319.107 656.307 337.215 655.068C352.651 654.012 361.312 651.826 376.761 652.671C388.722 653.325 395.155 656.462 407.119 657.065C420.852 657.758 428.523 654.854 442.272 655.068C453.062 655.236 459.043 657.182 469.834 657.065C479.226 656.964 484.985 651.831 493.802 655.068C496.618 656.102 500.592 658.663 500.592 658.663V852H-87.4077V651.473Z" fill="#E1F1FE"/>
<circle cx="57.5952" cy="692.617" r="4.39402" fill="white"/>
<circle cx="371.568" cy="377.845" r="8.38859" fill="white"/>
<ellipse cx="50.5" cy="732.5" rx="18.5" ry="11.5" fill="#818181" fill-opacity="0.27"/>
<ellipse cx="89" cy="754" rx="16" ry="12" fill="#818181" fill-opacity="0.27"/>
<ellipse cx="170.5" cy="715" rx="21.5" ry="12" fill="#818181" fill-opacity="0.27"/>
<ellipse cx="128" cy="695.5" rx="30" ry="13.5" transform="rotate(4.48126 128 695.5)" fill="#818181" fill-opacity="0.27"/>
<ellipse cx="243.5" cy="713" rx="21.5" ry="12" fill="#818181" fill-opacity="0.27"/>
<ellipse cx="288.376" cy="693.992" rx="28.9792" ry="12" transform="rotate(1.97491 288.376 693.992)" fill="#818181" fill-opacity="0.27"/>
<ellipse cx="324" cy="724" rx="19" ry="12" fill="#818181" fill-opacity="0.27"/>
<circle cx="36.0246" cy="479.307" r="8.38859" fill="white"/>
<circle cx="124.704" cy="581.568" r="8.38859" fill="white"/>
<circle cx="399.53" cy="723.774" r="8.38859" fill="white"/>
<circle cx="40.019" cy="779.698" r="8.38859" fill="white"/>
<circle cx="133.492" cy="301.149" r="8.38859" fill="white"/>
<circle cx="48.0082" cy="333.905" r="3.59511" fill="white"/>
<circle cx="316.443" cy="432.171" r="3.59511" fill="white"/>
<circle cx="238.15" cy="814.85" r="3.59511" fill="white"/>
<circle cx="151.068" cy="777.302" r="3.59511" fill="white"/>
<circle cx="88.7528" cy="818.845" r="3.59511" fill="white"/>
<circle cx="329.225" cy="830.829" r="3.59511" fill="white"/>
<circle cx="359.584" cy="784.492" r="3.59511" fill="white"/>
<circle cx="286.883" cy="354.677" r="3.59511" fill="white"/>
<circle cx="245.34" cy="479.307" r="3.59511" fill="white"/>
<circle cx="226.166" cy="561.595" r="3.59511" fill="white"/>
<circle cx="113.519" cy="432.171" r="3.59511" fill="white"/>
<circle cx="366.775" cy="487.296" r="3.59511" fill="#D9D9D9"/>
<circle cx="188.617" cy="357.872" r="3.59511" fill="#D9D9D9"/>
<circle cx="0.872208" cy="411.399" r="3.59511" fill="#D9D9D9"/>
<circle cx="32.8288" cy="614.323" r="3.59511" fill="#D9D9D9"/>
<circle cx="133.492" cy="511.264" r="3.59511" fill="#D9D9D9"/>
<circle cx="312.448" cy="293.16" r="3.59511" fill="#D9D9D9"/>
<path d="M268.508 695.413C264.673 696.372 258.389 695.014 255.725 694.215L252.13 654.269L302.462 644.283C309.386 647.079 323.713 655.228 325.63 665.454C327.548 675.68 321.636 687.024 318.44 691.418C314.579 694.215 303.421 700.366 289.679 702.603C275.938 704.84 269.84 698.742 268.508 695.413Z" fill="#FDEED9"/>
<path d="M112.321 703.802C96.6618 696.452 95.1439 680.5 96.3422 673.443L123.505 659.861L171.041 649.076L191.812 667.451C193.543 673.177 195.807 685.826 191.013 690.62C186.22 695.413 157.592 699.807 143.878 701.405C139.883 705.266 127.979 711.152 112.321 703.802Z" fill="white"/>
<mask id="path-50-inside-1_56_18781" fill="white">
<path d="M61.1899 673.842C64.2785 673.842 66.7827 676.347 66.7827 679.435V685.826C66.7827 686.525 66.6518 687.193 66.4175 687.81C70.5356 690.811 73.1743 695.428 73.1743 700.606C73.1743 705.249 71.0522 709.44 67.645 712.421C69.6261 715.23 70.7768 718.58 70.7769 722.176C70.7769 732.104 62.0137 740.152 51.2036 740.152C49.1419 740.152 47.1548 739.859 45.2886 739.316C44.2687 740.322 42.8225 740.951 41.2173 740.951C38.1288 740.951 35.6256 738.626 35.6255 735.758C35.6255 734.999 35.8015 734.279 36.1167 733.629C33.3147 730.519 31.6304 726.528 31.6304 722.176C31.6305 716.421 34.5762 711.296 39.1587 708.006C37.9208 705.784 37.2232 703.269 37.2231 700.606C37.2231 695.161 40.1399 690.337 44.6274 687.359C44.4888 686.872 44.4126 686.358 44.4126 685.826V679.435C44.4126 676.347 46.9168 673.842 50.0054 673.842C53.094 673.842 55.5981 676.347 55.5981 679.435C55.5981 676.347 58.1015 673.843 61.1899 673.842Z"/>
</mask>
<path d="M61.1899 673.842C64.2785 673.842 66.7827 676.347 66.7827 679.435V685.826C66.7827 686.525 66.6518 687.193 66.4175 687.81C70.5356 690.811 73.1743 695.428 73.1743 700.606C73.1743 705.249 71.0522 709.44 67.645 712.421C69.6261 715.23 70.7768 718.58 70.7769 722.176C70.7769 732.104 62.0137 740.152 51.2036 740.152C49.1419 740.152 47.1548 739.859 45.2886 739.316C44.2687 740.322 42.8225 740.951 41.2173 740.951C38.1288 740.951 35.6256 738.626 35.6255 735.758C35.6255 734.999 35.8015 734.279 36.1167 733.629C33.3147 730.519 31.6304 726.528 31.6304 722.176C31.6305 716.421 34.5762 711.296 39.1587 708.006C37.9208 705.784 37.2232 703.269 37.2231 700.606C37.2231 695.161 40.1399 690.337 44.6274 687.359C44.4888 686.872 44.4126 686.358 44.4126 685.826V679.435C44.4126 676.347 46.9168 673.842 50.0054 673.842C53.094 673.842 55.5981 676.347 55.5981 679.435C55.5981 676.347 58.1015 673.843 61.1899 673.842Z" fill="white"/>
<path d="M61.1899 673.842L61.1899 672.842L61.1899 672.842L61.1899 673.842ZM66.4175 687.81L65.4826 687.455L65.2116 688.169L65.8285 688.618L66.4175 687.81ZM73.1743 700.606L74.1743 700.606V700.606H73.1743ZM67.645 712.421L66.9866 711.668L66.3088 712.261L66.8277 712.997L67.645 712.421ZM70.7769 722.176L71.7769 722.176L71.7769 722.176L70.7769 722.176ZM51.2036 740.152L51.2036 741.152H51.2036V740.152ZM45.2886 739.316L45.5678 738.356L45.0043 738.192L44.5864 738.604L45.2886 739.316ZM41.2173 740.951L41.2173 741.951H41.2173V740.951ZM35.6255 735.758L34.6255 735.758L34.6255 735.758L35.6255 735.758ZM36.1167 733.629L37.0165 734.065L37.3102 733.459L36.8596 732.959L36.1167 733.629ZM31.6304 722.176L30.6304 722.176V722.176H31.6304ZM39.1587 708.006L39.7419 708.819L40.4661 708.299L40.0323 707.52L39.1587 708.006ZM37.2231 700.606L36.2231 700.606L36.2231 700.606L37.2231 700.606ZM44.6274 687.359L45.1803 688.192L45.7892 687.788L45.5893 687.085L44.6274 687.359ZM50.0054 673.842L50.0054 672.842L50.0054 672.842L50.0054 673.842ZM61.1899 673.842V674.842C63.7262 674.842 65.7827 676.899 65.7827 679.435H66.7827H67.7827C67.7827 675.794 64.8308 672.842 61.1899 672.842V673.842ZM66.7827 679.435H65.7827V685.826H66.7827H67.7827V679.435H66.7827ZM66.7827 685.826H65.7827C65.7827 686.399 65.6755 686.947 65.4826 687.455L66.4175 687.81L67.3523 688.165C67.628 687.439 67.7827 686.651 67.7827 685.826H66.7827ZM66.4175 687.81L65.8285 688.618C69.7184 691.453 72.1743 695.783 72.1743 700.606H73.1743H74.1743C74.1743 695.073 71.3527 690.17 67.0064 687.002L66.4175 687.81ZM73.1743 700.606L72.1743 700.606C72.1743 704.932 70.1991 708.858 66.9866 711.668L67.645 712.421L68.3034 713.173C71.9052 710.023 74.1743 705.566 74.1743 700.606L73.1743 700.606ZM67.645 712.421L66.8277 712.997C68.6971 715.648 69.7768 718.798 69.7769 722.176L70.7769 722.176L71.7769 722.176C71.7768 718.361 70.5551 714.813 68.4623 711.844L67.645 712.421ZM70.7769 722.176H69.7769C69.7769 731.473 61.5433 739.152 51.2036 739.152V740.152V741.152C62.4841 741.152 71.7769 732.735 71.7769 722.176H70.7769ZM51.2036 740.152L51.2036 739.152C49.237 739.152 47.3439 738.872 45.5678 738.356L45.2886 739.316L45.0093 740.276C46.9657 740.845 49.0468 741.152 51.2036 741.152L51.2036 740.152ZM45.2886 739.316L44.5864 738.604C43.7535 739.425 42.5595 739.951 41.2173 739.951V740.951V741.951C43.0855 741.951 44.7838 741.218 45.9908 740.028L45.2886 739.316ZM41.2173 740.951L41.2173 739.951C38.6101 739.951 36.6256 738.005 36.6255 735.758L35.6255 735.758L34.6255 735.758C34.6257 739.247 37.6476 741.951 41.2173 741.951L41.2173 740.951ZM35.6255 735.758H36.6255C36.6255 735.156 36.7647 734.584 37.0165 734.065L36.1167 733.629L35.2169 733.192C34.8382 733.973 34.6255 734.843 34.6255 735.758H35.6255ZM36.1167 733.629L36.8596 732.959C34.21 730.018 32.6304 726.262 32.6304 722.176H31.6304H30.6304C30.6304 726.794 32.4194 731.019 35.3738 734.298L36.1167 733.629ZM31.6304 722.176L32.6304 722.176C32.6305 716.777 35.392 711.942 39.7419 708.819L39.1587 708.006L38.5755 707.194C33.7603 710.651 30.6305 716.064 30.6304 722.176L31.6304 722.176ZM39.1587 708.006L40.0323 707.52C38.8736 705.439 38.2232 703.091 38.2231 700.606L37.2231 700.606L36.2231 700.606C36.2232 703.447 36.968 706.128 38.285 708.493L39.1587 708.006ZM37.2231 700.606H38.2231C38.2231 695.535 40.9378 691.007 45.1803 688.192L44.6274 687.359L44.0745 686.526C39.3419 689.666 36.2231 694.787 36.2231 700.606H37.2231ZM44.6274 687.359L45.5893 687.085C45.475 686.684 45.4126 686.261 45.4126 685.826H44.4126H43.4126C43.4126 686.454 43.5026 687.06 43.6656 687.633L44.6274 687.359ZM44.4126 685.826H45.4126V679.435H44.4126H43.4126V685.826H44.4126ZM44.4126 679.435H45.4126C45.4126 676.899 47.4691 674.842 50.0054 674.842L50.0054 673.842L50.0054 672.842C46.3645 672.842 43.4126 675.794 43.4126 679.435H44.4126ZM50.0054 673.842V674.842C52.5417 674.842 54.5981 676.899 54.5981 679.435H55.5981H56.5981C56.5981 675.794 53.6462 672.842 50.0054 672.842V673.842ZM55.5981 679.435H56.5981C56.5981 676.899 58.654 674.843 61.19 674.842L61.1899 673.842L61.1899 672.842C57.549 672.843 54.5981 675.795 54.5981 679.435H55.5981Z" fill="#D3E1EC" mask="url(#path-50-inside-1_56_18781)"/>
<path d="M43.2147 709.394C44.9457 711.258 51.2039 714.427 62.3886 712.19" stroke="#D7E4EC" stroke-width="3" stroke-linecap="round"/>
<path d="M38.0217 732.163C40.1522 730.965 44.5728 730.006 45.2119 735.758" stroke="#D7E4EC" stroke-width="2" stroke-linecap="round"/>
<path d="M55.5978 679.435C55.0652 680.101 53.281 683.11 53.6005 686.625" stroke="#D7E4EC" stroke-width="2" stroke-linecap="round"/>
<mask id="path-55-inside-2_56_18781" fill="white">
<path d="M98.4163 707.397C100.97 707.397 103.041 709.467 103.041 712.021V717.306C103.041 717.884 102.933 718.437 102.74 718.948C106.145 721.429 108.326 725.247 108.326 729.529C108.326 733.368 106.572 736.834 103.754 739.298C105.392 741.622 106.344 744.391 106.344 747.365C106.344 755.575 99.0975 762.23 90.1584 762.23C88.4534 762.23 86.8102 761.987 85.2668 761.538C84.4235 762.37 83.2279 762.891 81.9006 762.891C79.3466 762.891 77.2756 760.968 77.2756 758.596C77.2757 757.968 77.4213 757.373 77.6819 756.835C75.3651 754.264 73.9729 750.964 73.9729 747.365C73.9729 742.605 76.4086 738.367 80.1985 735.647C79.1751 733.809 78.597 731.73 78.5969 729.529C78.5969 725.026 81.0094 721.037 84.72 718.574C84.6053 718.171 84.5432 717.746 84.5432 717.306V712.021C84.5435 709.467 86.6135 707.397 89.1672 707.397C91.7211 707.397 93.792 709.467 93.7922 712.021C93.7925 709.467 95.8625 707.397 98.4163 707.397Z"/>
</mask>
<path d="M98.4163 707.397C100.97 707.397 103.041 709.467 103.041 712.021V717.306C103.041 717.884 102.933 718.437 102.74 718.948C106.145 721.429 108.326 725.247 108.326 729.529C108.326 733.368 106.572 736.834 103.754 739.298C105.392 741.622 106.344 744.391 106.344 747.365C106.344 755.575 99.0975 762.23 90.1584 762.23C88.4534 762.23 86.8102 761.987 85.2668 761.538C84.4235 762.37 83.2279 762.891 81.9006 762.891C79.3466 762.891 77.2756 760.968 77.2756 758.596C77.2757 757.968 77.4213 757.373 77.6819 756.835C75.3651 754.264 73.9729 750.964 73.9729 747.365C73.9729 742.605 76.4086 738.367 80.1985 735.647C79.1751 733.809 78.597 731.73 78.5969 729.529C78.5969 725.026 81.0094 721.037 84.72 718.574C84.6053 718.171 84.5432 717.746 84.5432 717.306V712.021C84.5435 709.467 86.6135 707.397 89.1672 707.397C91.7211 707.397 93.792 709.467 93.7922 712.021C93.7925 709.467 95.8625 707.397 98.4163 707.397Z" fill="white"/>
<path d="M98.4163 707.397L98.4163 706.397L98.4162 706.397L98.4163 707.397ZM103.041 712.021L104.041 712.021L104.041 712.021L103.041 712.021ZM102.74 718.948L101.805 718.592L101.534 719.306L102.151 719.756L102.74 718.948ZM108.326 729.529L109.326 729.529V729.529H108.326ZM103.754 739.298L103.096 738.545L102.418 739.138L102.937 739.874L103.754 739.298ZM106.344 747.365L107.344 747.365V747.365H106.344ZM90.1584 762.23L90.1584 763.23H90.1584V762.23ZM85.2668 761.538L85.5461 760.578L84.9825 760.414L84.5647 760.826L85.2668 761.538ZM81.9006 762.891L81.9006 763.891L81.9007 763.891L81.9006 762.891ZM77.2756 758.596L76.2756 758.596V758.596H77.2756ZM77.6819 756.835L78.5817 757.272L78.8754 756.666L78.4248 756.166L77.6819 756.835ZM73.9729 747.365L72.9729 747.365L72.9729 747.365L73.9729 747.365ZM80.1985 735.647L80.7816 736.459L81.5059 735.939L81.0722 735.16L80.1985 735.647ZM78.5969 729.529L77.5969 729.529L77.5969 729.529L78.5969 729.529ZM84.72 718.574L85.2729 719.408L85.8818 719.004L85.6818 718.301L84.72 718.574ZM84.5432 712.021L83.5432 712.021V712.021H84.5432ZM89.1672 707.397L89.1672 706.397L89.1672 706.397L89.1672 707.397ZM93.7922 712.021L92.7922 712.021L94.7922 712.021L93.7922 712.021ZM98.4163 707.397V708.397C100.418 708.397 102.041 710.019 102.041 712.021L103.041 712.021L104.041 712.021C104.041 708.914 101.522 706.397 98.4163 706.397V707.397ZM103.041 712.021H102.041V717.306H103.041H104.041V712.021H103.041ZM103.041 717.306H102.041C102.041 717.759 101.957 718.192 101.805 718.592L102.74 718.948L103.674 719.303C103.91 718.683 104.041 718.01 104.041 717.306H103.041ZM102.74 718.948L102.151 719.756C105.327 722.071 107.326 725.602 107.326 729.529H108.326H109.326C109.326 724.892 106.962 720.787 103.329 718.139L102.74 718.948ZM108.326 729.529L107.326 729.529C107.326 733.051 105.718 736.251 103.096 738.545L103.754 739.298L104.413 740.051C107.425 737.416 109.326 733.685 109.326 729.529L108.326 729.529ZM103.754 739.298L102.937 739.874C104.463 742.039 105.344 744.61 105.344 747.365H106.344H107.344C107.344 744.173 106.321 741.204 104.571 738.722L103.754 739.298ZM106.344 747.365L105.344 747.365C105.344 754.944 98.6271 761.23 90.1584 761.23V762.23V763.23C99.568 763.23 107.344 756.206 107.344 747.365L106.344 747.365ZM90.1584 762.23L90.1585 761.23C88.5485 761.23 86.9993 761.001 85.5461 760.578L85.2668 761.538L84.9876 762.499C86.6211 762.974 88.3583 763.23 90.1584 763.23L90.1584 762.23ZM85.2668 761.538L84.5647 760.826C83.908 761.474 82.9645 761.891 81.9006 761.891L81.9006 762.891L81.9007 763.891C83.4914 763.891 84.939 763.266 85.969 762.25L85.2668 761.538ZM81.9006 762.891V761.891C79.8279 761.891 78.2756 760.347 78.2756 758.596H77.2756H76.2756C76.2756 761.588 78.8653 763.891 81.9006 763.891V762.891ZM77.2756 758.596L78.2756 758.596C78.2757 758.125 78.3845 757.678 78.5817 757.272L77.6819 756.835L76.7821 756.399C76.4581 757.067 76.2757 757.811 76.2756 758.596L77.2756 758.596ZM77.6819 756.835L78.4248 756.166C76.2605 753.764 74.9729 750.698 74.9729 747.365L73.9729 747.365L72.9729 747.365C72.9729 751.23 74.4697 754.764 76.9389 757.505L77.6819 756.835ZM73.9729 747.365H74.9729C74.9729 742.962 77.2246 739.013 80.7816 736.459L80.1985 735.647L79.6153 734.834C75.5926 737.722 72.9729 742.249 72.9729 747.365H73.9729ZM80.1985 735.647L81.0722 735.16C80.1277 733.464 79.597 731.552 79.5969 729.529L78.5969 729.529L77.5969 729.529C77.597 731.909 78.2226 734.154 79.3248 736.133L80.1985 735.647ZM78.5969 729.529H79.5969C79.5969 725.4 81.8073 721.708 85.2729 719.408L84.72 718.574L84.167 717.741C80.2115 720.366 77.5969 724.652 77.5969 729.529H78.5969ZM84.72 718.574L85.6818 718.301C85.5919 717.985 85.5432 717.651 85.5432 717.306H84.5432H83.5432C83.5432 717.84 83.6186 718.358 83.7582 718.848L84.72 718.574ZM84.5432 717.306H85.5432V712.021H84.5432H83.5432V717.306H84.5432ZM84.5432 712.021L85.5432 712.021C85.5434 710.019 87.1658 708.397 89.1673 708.397L89.1672 707.397L89.1672 706.397C86.0611 706.397 83.5435 708.915 83.5432 712.021L84.5432 712.021ZM89.1672 707.397V708.397C91.169 708.397 92.792 710.019 92.7922 712.021L93.7922 712.021L94.7922 712.021C94.7919 708.914 92.2732 706.397 89.1672 706.397V707.397ZM93.7922 712.021L94.7922 712.021C94.7924 710.019 96.4148 708.397 98.4163 708.397L98.4163 707.397L98.4162 706.397C95.3101 706.397 92.7925 708.915 92.7922 712.021L93.7922 712.021Z" fill="#D3E1EC" mask="url(#path-55-inside-2_56_18781)"/>
<path d="M83.5521 736.795C84.9835 738.337 90.1585 740.957 99.4075 739.107" stroke="#D7E4EC" stroke-width="3" stroke-linecap="round"/>
<path d="M79.2581 755.623C81.0198 754.632 84.6753 753.84 85.2038 758.596" stroke="#D7E4EC" stroke-width="2" stroke-linecap="round"/>
<path d="M93.7919 712.021C93.3515 712.572 91.8761 715.06 92.1403 717.967" stroke="#D7E4EC" stroke-width="2" stroke-linecap="round"/>
<ellipse cx="148.671" cy="614.723" rx="41.144" ry="38.3478" fill="white"/>
<mask id="path-61-inside-3_56_18781" fill="white">
<path d="M327.388 674.741C324.79 674.961 322.751 676.898 322.288 679.341C320.612 679.088 318.863 679.026 317.074 679.178C313.902 679.447 310.966 680.359 308.432 681.747C307.575 679.915 305.643 678.721 303.51 678.901C300.774 679.133 298.743 681.538 298.975 684.274C299.12 685.988 300.119 687.424 301.518 688.201C299.891 690.857 299.078 693.903 299.346 697.07C299.726 701.558 302.203 705.44 305.9 708.092C304.369 710.765 303.615 713.82 303.884 716.998C304.662 726.182 313.687 732.916 324.043 732.039C326.272 731.85 328.381 731.323 330.31 730.523C331.241 731.48 332.576 732.029 334.01 731.908C336.55 731.693 338.435 729.46 338.221 726.92C338.166 726.277 337.982 725.675 337.697 725.14C340.324 721.974 341.742 718.005 341.388 713.822C341.013 709.402 338.728 705.549 335.304 702.84C336.985 700.152 337.83 697.056 337.557 693.835C337.225 689.919 335.298 686.463 332.355 683.884C333.199 682.797 333.654 681.403 333.529 679.923C333.264 676.797 330.515 674.476 327.388 674.741Z"/>
</mask>
<path d="M327.388 674.741C324.79 674.961 322.751 676.898 322.288 679.341C320.612 679.088 318.863 679.026 317.074 679.178C313.902 679.447 310.966 680.359 308.432 681.747C307.575 679.915 305.643 678.721 303.51 678.901C300.774 679.133 298.743 681.538 298.975 684.274C299.12 685.988 300.119 687.424 301.518 688.201C299.891 690.857 299.078 693.903 299.346 697.07C299.726 701.558 302.203 705.44 305.9 708.092C304.369 710.765 303.615 713.82 303.884 716.998C304.662 726.182 313.687 732.916 324.043 732.039C326.272 731.85 328.381 731.323 330.31 730.523C331.241 731.48 332.576 732.029 334.01 731.908C336.55 731.693 338.435 729.46 338.221 726.92C338.166 726.277 337.982 725.675 337.697 725.14C340.324 721.974 341.742 718.005 341.388 713.822C341.013 709.402 338.728 705.549 335.304 702.84C336.985 700.152 337.83 697.056 337.557 693.835C337.225 689.919 335.298 686.463 332.355 683.884C333.199 682.797 333.654 681.403 333.529 679.923C333.264 676.797 330.515 674.476 327.388 674.741Z" fill="white"/>
<path d="M327.388 674.741L327.304 673.745L327.304 673.745L327.388 674.741ZM322.288 679.341L323.27 679.527L323.091 680.474L322.138 680.33L322.288 679.341ZM317.074 679.178L316.989 678.181L316.989 678.181L317.074 679.178ZM308.432 681.747L308.913 682.624L307.978 683.136L307.527 682.171L308.432 681.747ZM303.51 678.901L303.425 677.905L303.425 677.905L303.51 678.901ZM298.975 684.274L297.979 684.358L297.979 684.358L298.975 684.274ZM301.518 688.201L302.003 687.327L302.915 687.834L302.37 688.723L301.518 688.201ZM299.346 697.07L298.35 697.155L298.35 697.155L299.346 697.07ZM305.9 708.092L306.483 707.279L307.216 707.805L306.768 708.589L305.9 708.092ZM303.884 716.998L302.888 717.082L302.888 717.082L303.884 716.998ZM324.043 732.039L324.128 733.036L324.128 733.036L324.043 732.039ZM330.31 730.523L329.927 729.599L330.554 729.339L331.027 729.826L330.31 730.523ZM334.01 731.908L334.095 732.904L334.095 732.904L334.01 731.908ZM338.221 726.92L339.217 726.835L339.217 726.835L338.221 726.92ZM337.697 725.14L336.814 725.61L336.498 725.018L336.927 724.501L337.697 725.14ZM341.388 713.822L342.384 713.738L342.384 713.738L341.388 713.822ZM335.304 702.84L334.683 703.624L333.981 703.068L334.456 702.309L335.304 702.84ZM337.557 693.835L338.553 693.751L338.553 693.751L337.557 693.835ZM332.355 683.884L331.696 684.636L330.987 684.015L331.565 683.271L332.355 683.884ZM333.529 679.923L334.525 679.839L334.525 679.839L333.529 679.923ZM327.388 674.741L327.473 675.738C325.333 675.919 323.652 677.513 323.27 679.527L322.288 679.341L321.305 679.155C321.849 676.283 324.246 674.004 327.304 673.745L327.388 674.741ZM322.288 679.341L322.138 680.33C320.541 680.089 318.869 680.029 317.158 680.174L317.074 679.178L316.989 678.181C318.856 678.023 320.684 678.088 322.437 678.352L322.288 679.341ZM317.074 679.178L317.158 680.174C314.124 680.431 311.324 681.303 308.913 682.624L308.432 681.747L307.952 680.87C310.609 679.415 313.679 678.462 316.989 678.181L317.074 679.178ZM308.432 681.747L307.527 682.171C306.841 680.706 305.296 679.754 303.594 679.898L303.51 678.901L303.425 677.905C305.989 677.688 308.309 679.124 309.338 681.323L308.432 681.747ZM303.51 678.901L303.594 679.898C301.408 680.083 299.786 682.004 299.971 684.189L298.975 684.274L297.979 684.358C297.7 681.072 300.14 678.183 303.425 677.905L303.51 678.901ZM298.975 684.274L299.971 684.189C300.087 685.557 300.883 686.705 302.003 687.327L301.518 688.201L301.032 689.075C299.355 688.143 298.153 686.418 297.979 684.358L298.975 684.274ZM301.518 688.201L302.37 688.723C300.846 691.214 300.094 694.048 300.342 696.986L299.346 697.07L298.35 697.155C298.062 693.757 298.937 690.501 300.665 687.679L301.518 688.201ZM299.346 697.07L300.342 696.986C300.694 701.142 302.988 704.773 306.483 707.279L305.9 708.092L305.317 708.904C301.417 706.107 298.758 701.974 298.35 697.155L299.346 697.07ZM305.9 708.092L306.768 708.589C305.331 711.097 304.63 713.951 304.881 716.913L303.884 716.998L302.888 717.082C302.6 713.688 303.408 710.432 305.032 707.595L305.9 708.092ZM303.884 716.998L304.881 716.913C305.602 725.438 314.037 731.883 323.959 731.043L324.043 732.039L324.128 733.036C313.337 733.949 303.721 726.925 302.888 717.082L303.884 716.998ZM324.043 732.039L323.959 731.043C326.084 730.863 328.092 730.36 329.927 729.599L330.31 730.523L330.693 731.446C328.669 732.286 326.46 732.838 324.128 733.036L324.043 732.039ZM330.31 730.523L331.027 729.826C331.758 730.578 332.803 731.006 333.926 730.911L334.01 731.908L334.095 732.904C332.348 733.052 330.723 732.382 329.593 731.22L330.31 730.523ZM334.01 731.908L333.926 730.911C335.916 730.743 337.392 728.993 337.224 727.004L338.221 726.92L339.217 726.835C339.478 729.926 337.185 732.642 334.095 732.904L334.01 731.908ZM338.221 726.92L337.224 727.004C337.181 726.499 337.037 726.029 336.814 725.61L337.697 725.14L338.579 724.67C338.927 725.322 339.151 726.054 339.217 726.835L338.221 726.92ZM337.697 725.14L336.927 724.501C339.404 721.517 340.721 717.802 340.391 713.907L341.388 713.822L342.384 713.738C342.763 718.208 341.244 722.432 338.466 725.779L337.697 725.14ZM341.388 713.822L340.391 713.907C340.043 709.791 337.915 706.181 334.683 703.624L335.304 702.84L335.924 702.055C339.541 704.917 341.984 709.013 342.384 713.738L341.388 713.822ZM335.304 702.84L334.456 702.309C336.033 699.789 336.813 696.907 336.561 693.919L337.557 693.835L338.553 693.751C338.846 697.206 337.938 700.515 336.151 703.37L335.304 702.84ZM337.557 693.835L336.561 693.919C336.253 690.29 334.467 687.065 331.696 684.636L332.355 683.884L333.014 683.132C336.129 685.861 338.197 689.548 338.553 693.751L337.557 693.835ZM332.355 683.884L331.565 683.271C332.262 682.373 332.636 681.226 332.533 680.007L333.529 679.923L334.525 679.839C334.673 681.579 334.136 683.22 333.145 684.497L332.355 683.884ZM333.529 679.923L332.533 680.008C332.314 677.431 330.049 675.519 327.473 675.738L327.388 674.741L327.304 673.745C330.981 673.433 334.214 676.162 334.525 679.839L333.529 679.923Z" fill="#D7E4EC" mask="url(#path-61-inside-3_56_18781)"/>
<path d="M331.998 703.927C329.681 706.024 322.157 709.749 310.595 707.877M335.504 724.298C333.665 723.623 329.948 723.486 329.789 728.346" stroke="#D7E4EC" stroke-width="3" stroke-linecap="round"/>
<ellipse cx="122.075" cy="630.753" rx="12.9704" ry="14.7826" transform="rotate(-33.2134 122.075 630.753)" fill="#FFE1DF"/>
<path d="M151.549 619.675C153.141 618.794 154.521 617.184 155.369 616.039C155.807 615.447 156.75 615.422 157.216 615.993C158.161 617.152 159.684 618.766 161.219 619.32C161.759 619.515 162.23 619.999 162.162 620.569C161.854 623.169 160.713 627.106 156.261 627.106C151.504 627.106 150.758 622.956 150.999 620.448C151.031 620.114 151.255 619.838 151.549 619.675Z" fill="#FFE1DF" stroke="black" stroke-width="3" stroke-linecap="round"/>
<ellipse cx="183.697" cy="627.795" rx="6.6893" ry="12.1613" transform="rotate(26.8265 183.697 627.795)" fill="#FFE1DF"/>
<path d="M144.535 530.942C149.163 530.502 154.287 532.248 158.045 536.822C161.753 541.336 164.017 548.454 163.42 558.629C169.114 561.078 177.177 565.821 183.963 572.623C190.877 579.554 196.579 588.741 196.907 599.899C197.492 619.799 191.312 632.359 187.01 637.525C189.627 639.226 193.243 642.53 194.286 647.216C194.653 648.866 193.306 650.171 191.851 650.153C182.227 650.038 159.977 651.671 139.375 659.209C136.377 661.266 129.463 667.741 125.158 677.776C124.75 678.727 123.79 679.353 122.726 679.3L92.2891 677.778C91.1221 677.72 90.1006 676.848 89.9502 675.617C89.5992 672.74 89.5003 668.484 90.2832 664.249C91.0613 660.041 92.7521 655.633 96.17 652.728C97.0702 651.962 97.2532 651.51 97.2852 651.319C97.307 651.188 97.301 650.922 96.8682 650.349C96.4222 649.758 95.704 649.079 94.6846 648.173C93.7012 647.299 92.483 646.25 91.2041 645.01C85.9819 639.944 79.6758 631.599 79.2647 615.16C78.6306 589.797 95.503 572.148 104.92 565.777C104.116 563.422 103.172 560.049 102.627 556.565C102.063 552.96 101.887 549.01 102.909 545.941C104.189 542.102 107.896 537.179 113.21 535.18C115.91 534.164 119.008 533.913 122.34 534.937C125.526 535.916 128.837 538.034 132.194 541.597C133.107 539.606 134.5 537.258 136.379 535.27C138.428 533.101 141.153 531.265 144.535 530.942ZM148.671 574.777C125.507 574.778 106.729 591.767 106.729 612.726C106.729 633.684 125.507 650.674 148.671 650.674C171.835 650.674 190.614 633.684 190.614 612.726C190.614 591.767 171.835 574.777 148.671 574.777Z" fill="#C48F6D"/>
<path d="M142.464 571.928C144.318 571.54 146.08 571.791 147.26 572.49C148.208 572.181 149.336 572.062 150.525 572.193C152.061 572.361 153.407 572.914 154.342 573.672C155.432 573.091 156.918 572.816 158.514 572.991C160.839 573.247 162.728 574.384 163.415 575.778C164.447 575.743 165.611 575.966 166.756 576.468C168.41 577.194 169.659 578.344 170.252 579.537C171.324 579.472 172.553 579.689 173.76 580.219C175.814 581.12 177.243 582.674 177.567 584.154C178.394 584.4 179.248 584.822 180.05 585.417C181.536 586.519 182.509 587.96 182.797 589.281C183.786 589.73 184.78 590.512 185.603 591.566C186.803 593.101 187.353 594.848 187.204 596.235C187.857 596.749 188.473 597.422 188.99 598.226C189.977 599.761 190.381 601.429 190.201 602.758C190.982 603.544 191.642 604.662 192.027 605.982C192.562 607.811 192.444 609.598 191.829 610.829C192.805 611.807 193.479 613.479 193.538 615.396C193.6 617.409 192.969 619.193 191.973 620.209C192.393 621.42 192.395 623.017 191.878 624.635C191.421 626.065 190.642 627.246 189.747 628.015C189.983 629.127 189.915 630.469 189.481 631.825C188.876 633.72 187.707 635.178 186.448 635.817C186.295 636.94 185.78 638.175 184.92 639.303C183.98 640.534 182.809 641.402 181.675 641.811C181.699 643.296 180.758 645.107 179.087 646.489C177.851 647.511 176.461 648.097 175.232 648.211C174.604 649.134 173.618 650 172.379 650.628C170.917 651.369 169.398 651.63 168.159 651.448C167.321 652.386 165.976 653.162 164.366 653.525C162.438 653.958 160.6 653.696 159.411 652.945C158.507 654.11 156.672 654.942 154.53 655.008C153.038 655.054 151.67 654.718 150.649 654.136C149.51 654.789 147.873 655.067 146.129 654.794C144.589 654.553 143.26 653.93 142.36 653.12C141.217 653.824 139.527 654.131 137.721 653.849C135.583 653.514 133.852 652.442 133.112 651.155C132.006 651.201 130.737 650.933 129.504 650.328C128.458 649.815 127.588 649.135 126.957 648.389C125.741 648.555 124.265 648.309 122.837 647.609C121.379 646.893 120.262 645.849 119.658 644.761C118.626 644.521 117.529 643.979 116.533 643.154C115.553 642.341 114.824 641.381 114.394 640.426C112.84 640.532 110.904 639.455 109.523 637.554C108.555 636.221 108.055 634.754 108.043 633.497C107.281 633.008 106.546 632.318 105.924 631.462C104.655 629.717 104.191 627.74 104.574 626.31C104.018 625.53 103.576 624.545 103.33 623.437C103.002 621.958 103.082 620.534 103.477 619.414C102.491 618.417 101.838 616.689 101.838 614.723C101.838 612.823 102.447 611.145 103.378 610.134C102.913 609.192 102.636 608.013 102.636 606.734C102.636 604.733 103.312 602.979 104.327 601.99C103.986 600.741 104.109 599.121 104.767 597.524C105.532 595.667 106.832 594.298 108.153 593.776C108.079 592.724 108.272 591.522 108.761 590.333C109.504 588.531 110.751 587.189 112.031 586.634C112.208 585.856 112.528 585.047 112.994 584.267C114.098 582.418 115.728 581.215 117.192 581.001C117.774 580.285 118.561 579.621 119.508 579.094C120.817 578.365 122.191 578.035 123.368 578.086C123.964 577.264 124.829 576.493 125.898 575.899C127.738 574.875 129.704 574.637 131.075 575.139C131.927 574.215 133.285 573.462 134.899 573.124C136.503 572.789 138.04 572.93 139.189 573.427C140.027 572.742 141.162 572.2 142.464 571.928ZM146.257 578.11C145.581 578.488 144.795 578.785 143.936 578.965C142.332 579.301 140.795 579.159 139.646 578.661C138.809 579.346 137.674 579.89 136.372 580.162C134.745 580.503 133.189 580.351 132.035 579.836C131.438 580.717 130.531 581.549 129.394 582.182C128.085 582.91 126.711 583.239 125.534 583.188C124.938 584.01 124.073 584.782 123.004 585.377C121.968 585.953 120.893 586.279 119.906 586.365C119.724 586.896 119.479 587.432 119.167 587.954C118.312 589.384 117.142 590.427 115.979 590.926C115.894 591.622 115.708 592.35 115.41 593.072C114.645 594.929 113.344 596.297 112.023 596.82C112.097 597.872 111.905 599.074 111.415 600.263C110.862 601.604 110.03 602.691 109.113 603.388C109.561 604.321 109.827 605.479 109.827 606.734C109.827 608.634 109.216 610.311 108.285 611.321C108.75 612.264 109.028 613.443 109.028 614.723C109.028 615.988 108.756 617.155 108.301 618.092C109.229 618.934 109.994 620.277 110.349 621.879C110.656 623.26 110.604 624.593 110.274 625.675C110.799 626.103 111.299 626.627 111.741 627.236C112.709 628.568 113.208 630.035 113.22 631.291C113.983 631.781 114.718 632.471 115.341 633.327C115.94 634.153 116.359 635.03 116.594 635.876C117.969 635.8 119.656 636.403 121.123 637.619C122.104 638.434 122.833 639.396 123.262 640.352C124.141 640.438 125.083 640.702 126.004 641.154C127.048 641.666 127.917 642.347 128.549 643.092C129.765 642.925 131.242 643.172 132.671 643.873C134.168 644.608 135.303 645.689 135.895 646.809C136.78 646.615 137.787 646.582 138.833 646.745C140.371 646.986 141.7 647.608 142.599 648.417C143.742 647.713 145.434 647.408 147.24 647.691C148.497 647.887 149.614 648.34 150.471 648.94C151.457 648.29 152.809 647.867 154.31 647.821C156.047 647.768 157.615 648.23 158.665 648.997C159.451 647.877 160.946 646.924 162.787 646.51C164.073 646.221 165.319 646.24 166.359 646.509C166.99 645.632 167.944 644.815 169.129 644.215C170.28 643.632 171.467 643.346 172.525 643.339C172.967 642.497 173.637 641.665 174.504 640.948C175.501 640.124 176.599 639.582 177.632 639.344C177.565 638.008 178.102 636.386 179.205 634.941C180.087 633.785 181.175 632.949 182.243 632.513C182.192 631.619 182.315 630.632 182.633 629.637C183.09 628.207 183.867 627.025 184.762 626.256C184.526 625.144 184.596 623.803 185.029 622.446C185.495 620.988 186.294 619.787 187.212 619.02C186.71 618.088 186.391 616.908 186.351 615.617C186.303 614.04 186.679 612.602 187.324 611.565C186.382 610.779 185.571 609.524 185.126 607.999C184.736 606.665 184.693 605.353 184.936 604.263C184.206 603.731 183.513 603.002 182.942 602.113C181.982 600.619 181.574 599 181.719 597.69C181.085 597.251 180.475 596.679 179.937 595.991C179.055 594.862 178.523 593.619 178.363 592.488C177.501 592.248 176.606 591.814 175.767 591.193C174.318 590.118 173.357 588.721 173.044 587.427C172.339 587.328 171.602 587.124 170.873 586.804C169.218 586.078 167.968 584.927 167.375 583.734C166.302 583.799 165.075 583.582 163.868 583.053C162.224 582.332 160.979 581.192 160.382 580.007C159.575 580.188 158.671 580.242 157.728 580.139C156.192 579.97 154.846 579.416 153.911 578.657C152.821 579.239 151.335 579.516 149.739 579.34C148.378 579.19 147.166 578.738 146.257 578.11Z" fill="#C9EAE3"/>
<circle cx="171.44" cy="609.929" r="3.195" fill="#070101"/>
<circle cx="185.821" cy="659.861" r="12.3832" fill="#FFD99A"/>
<circle cx="139.483" cy="611.527" r="3.195" fill="#070101"/>
<path d="M132.693 543.62C134.557 545.617 138.125 551.689 137.486 559.997" stroke="#A26642" stroke-width="3" stroke-linecap="round"/>
<path d="M99.1387 651.473C100.736 652.804 106.009 655.228 114.318 654.269" stroke="#A26642" stroke-width="3" stroke-linecap="round"/>
<mask id="path-74-inside-4_56_18781" fill="white">
<path d="M156.968 647.478C153.285 647.478 150.3 650.464 150.3 654.146V660.688C150.3 661.588 150.479 662.445 150.802 663.228C145.853 666.621 142.68 671.864 142.68 677.747C142.68 682.998 145.209 687.738 149.271 691.108C146.909 694.286 145.537 698.075 145.537 702.142C145.537 713.37 155.985 722.471 168.874 722.471C171.332 722.471 173.702 722.139 175.927 721.525C177.143 722.663 178.867 723.375 180.781 723.375C184.464 723.375 187.449 720.745 187.449 717.502C187.449 716.643 187.239 715.828 186.863 715.094C190.204 711.577 192.212 707.064 192.212 702.142C192.212 695.633 188.7 689.837 183.236 686.116C184.712 683.602 185.544 680.759 185.544 677.747C185.544 671.565 182.039 666.09 176.653 662.725C176.859 662.083 176.971 661.399 176.971 660.688V654.146C176.971 650.464 173.986 647.478 170.304 647.478C166.621 647.478 163.636 650.464 163.636 654.146C163.636 650.464 160.65 647.478 156.968 647.478Z"/>
</mask>
<path d="M156.968 647.478C153.285 647.478 150.3 650.464 150.3 654.146V660.688C150.3 661.588 150.479 662.445 150.802 663.228C145.853 666.621 142.68 671.864 142.68 677.747C142.68 682.998 145.209 687.738 149.271 691.108C146.909 694.286 145.537 698.075 145.537 702.142C145.537 713.37 155.985 722.471 168.874 722.471C171.332 722.471 173.702 722.139 175.927 721.525C177.143 722.663 178.867 723.375 180.781 723.375C184.464 723.375 187.449 720.745 187.449 717.502C187.449 716.643 187.239 715.828 186.863 715.094C190.204 711.577 192.212 707.064 192.212 702.142C192.212 695.633 188.7 689.837 183.236 686.116C184.712 683.602 185.544 680.759 185.544 677.747C185.544 671.565 182.039 666.09 176.653 662.725C176.859 662.083 176.971 661.399 176.971 660.688V654.146C176.971 650.464 173.986 647.478 170.304 647.478C166.621 647.478 163.636 650.464 163.636 654.146C163.636 650.464 160.65 647.478 156.968 647.478Z" fill="white"/>
<path d="M156.968 647.478L156.968 646.478L156.968 646.478L156.968 647.478ZM150.3 660.688L149.3 660.688V660.688H150.3ZM150.802 663.228L151.726 662.847L152.035 663.595L151.367 664.053L150.802 663.228ZM142.68 677.747L141.68 677.747V677.747H142.68ZM149.271 691.108L149.91 690.339L150.64 690.944L150.074 691.705L149.271 691.108ZM145.537 702.142L144.537 702.142V702.142H145.537ZM168.874 722.471L168.874 723.471L168.874 723.471L168.874 722.471ZM175.927 721.525L175.661 720.561L176.201 720.412L176.61 720.795L175.927 721.525ZM180.781 723.375L180.781 724.375H180.781V723.375ZM187.449 717.502L188.449 717.502V717.502H187.449ZM186.863 715.094L185.973 715.549L185.651 714.918L186.138 714.405L186.863 715.094ZM192.212 702.142L193.212 702.142L193.212 702.142L192.212 702.142ZM183.236 686.116L182.673 686.943L181.901 686.416L182.374 685.61L183.236 686.116ZM185.544 677.747L186.544 677.747L186.544 677.747L185.544 677.747ZM176.653 662.725L176.124 663.573L175.463 663.161L175.701 662.42L176.653 662.725ZM176.971 660.688L177.971 660.688L177.971 660.688L176.971 660.688ZM170.304 647.478L170.304 646.478L170.304 646.478L170.304 647.478ZM156.968 647.478V648.478C153.838 648.478 151.3 651.016 151.3 654.146H150.3H149.3C149.3 649.911 152.733 646.478 156.968 646.478V647.478ZM150.3 654.146H151.3V660.688H150.3H149.3V654.146H150.3ZM150.3 660.688L151.3 660.688C151.3 661.454 151.452 662.182 151.726 662.847L150.802 663.228L149.877 663.61C149.506 662.708 149.3 661.722 149.3 660.688L150.3 660.688ZM150.802 663.228L151.367 664.053C146.647 667.29 143.68 672.244 143.68 677.747H142.68H141.68C141.68 671.484 145.06 665.953 150.236 662.404L150.802 663.228ZM142.68 677.747L143.68 677.747C143.68 682.661 146.044 687.131 149.91 690.339L149.271 691.108L148.633 691.878C144.374 688.344 141.68 683.335 141.68 677.747L142.68 677.747ZM149.271 691.108L150.074 691.705C147.83 694.724 146.537 698.306 146.537 702.142H145.537H144.537C144.537 697.843 145.989 693.848 148.469 690.512L149.271 691.108ZM145.537 702.142L146.537 702.142C146.537 712.692 156.404 721.471 168.874 721.471L168.874 722.471L168.874 723.471C155.567 723.471 144.537 714.047 144.537 702.142L145.537 702.142ZM168.874 722.471V721.471C171.242 721.471 173.522 721.151 175.661 720.561L175.927 721.525L176.193 722.489C173.881 723.127 171.423 723.471 168.874 723.471V722.471ZM175.927 721.525L176.61 720.795C177.636 721.755 179.114 722.375 180.781 722.375V723.375V724.375C178.62 724.375 176.65 723.571 175.244 722.255L175.927 721.525ZM180.781 723.375L180.781 722.375C184.035 722.375 186.449 720.077 186.449 717.502H187.449H188.449C188.449 721.413 184.893 724.375 180.781 724.375L180.781 723.375ZM187.449 717.502L186.449 717.502C186.449 716.81 186.28 716.15 185.973 715.549L186.863 715.094L187.754 714.638C188.198 715.507 188.449 716.477 188.449 717.502L187.449 717.502ZM186.863 715.094L186.138 714.405C189.321 711.054 191.212 706.781 191.212 702.142L192.212 702.142L193.212 702.142C193.212 707.346 191.087 712.099 187.588 715.782L186.863 715.094ZM192.212 702.142H191.212C191.212 696.012 187.907 690.506 182.673 686.943L183.236 686.116L183.799 685.289C189.494 689.167 193.212 695.253 193.212 702.142H192.212ZM183.236 686.116L182.374 685.61C183.765 683.24 184.544 680.57 184.544 677.747L185.544 677.747L186.544 677.747C186.544 680.947 185.659 683.964 184.099 686.622L183.236 686.116ZM185.544 677.747H184.544C184.544 671.965 181.267 666.787 176.124 663.573L176.653 662.725L177.183 661.877C182.811 665.393 186.544 671.164 186.544 677.747H185.544ZM176.653 662.725L175.701 662.42C175.876 661.875 175.971 661.294 175.971 660.688L176.971 660.688L177.971 660.688C177.971 661.504 177.843 662.291 177.606 663.031L176.653 662.725ZM176.971 660.688H175.971V654.146H176.971H177.971V660.688H176.971ZM176.971 654.146H175.971C175.971 651.016 173.434 648.478 170.304 648.478L170.304 647.478L170.304 646.478C174.539 646.479 177.971 649.912 177.971 654.146H176.971ZM170.304 647.478V648.478C167.173 648.478 164.636 651.016 164.636 654.146H163.636H162.636C162.636 649.911 166.069 646.478 170.304 646.478V647.478ZM163.636 654.146H162.636C162.636 651.016 160.098 648.478 156.968 648.478L156.968 647.478L156.968 646.478C161.202 646.478 164.636 649.911 164.636 654.146H163.636Z" fill="#D3E1EC" mask="url(#path-74-inside-4_56_18781)"/>
<path d="M178.4 687.685C176.336 689.794 168.875 693.378 155.539 690.848" stroke="#D7E4EC" stroke-width="3" stroke-linecap="round"/>
<path d="M184.592 713.436C182.052 712.081 176.781 710.997 176.019 717.502" stroke="#D7E4EC" stroke-width="2" stroke-linecap="round"/>
<path d="M163.635 653.803C164.27 654.556 166.398 657.959 166.017 661.935" stroke="#D7E4EC" stroke-width="2" stroke-linecap="round"/>
<path d="M142.28 687.823C130.776 687.504 125.503 681.033 124.304 677.837L125.103 666.253L139.484 658.663C142.946 659.196 149.95 661.06 150.269 664.255C150.505 666.617 148.575 667.379 146.799 667.508C148.878 667.753 151.87 668.652 154.264 671.046C158.258 675.041 156.66 688.223 142.28 687.823Z" fill="#FFD99A"/>
<path d="M145.263 654.78C147.517 654.842 149.301 656.5 149.247 658.485C149.193 660.47 147.322 662.029 145.067 661.968C144.822 661.961 144.582 661.933 144.35 661.89C143.538 662.538 142.465 663.058 141.236 663.338C140.226 663.567 139.24 663.605 138.359 663.481C137.83 664.102 137.154 664.682 136.354 665.162C134.92 666.024 133.39 666.391 132.126 666.277C131.846 666.968 131.443 667.665 130.919 668.32C130.199 669.221 129.354 669.917 128.498 670.372C128.84 671.824 128.289 673.804 126.925 675.511C126.177 676.445 125.295 677.159 124.405 677.612C124.584 678.037 124.654 678.48 124.593 678.926C124.323 680.893 121.623 682.147 118.563 681.726C117.126 681.529 115.865 680.998 114.96 680.286C114.13 680.927 113.032 681.432 111.781 681.687C110.014 682.047 108.332 681.828 107.16 681.197C106.242 681.58 105.134 681.791 103.943 681.759C102.536 681.72 101.26 681.349 100.292 680.77C99.2572 681.418 97.8218 681.802 96.2441 681.759C94.4947 681.711 92.9473 681.151 91.9443 680.314C89.88 680.083 88.3037 678.505 88.3545 676.637C88.4086 674.653 90.2806 673.094 92.5351 673.155C93.8212 673.19 94.9538 673.745 95.6797 674.584C95.9284 674.569 96.182 674.564 96.4394 674.571C97.8464 674.609 99.1222 674.98 100.09 675.558C101.125 674.91 102.561 674.528 104.139 674.571C105.57 674.61 106.866 674.992 107.84 675.588C108.557 675.164 109.408 674.833 110.346 674.642C112.226 674.259 114.01 674.531 115.186 675.258C116.305 674.644 117.87 674.374 119.542 674.603C119.588 674.61 119.634 674.617 119.68 674.624C119.832 673.464 120.382 672.179 121.309 671.02C122.029 670.12 122.873 669.423 123.729 668.968C123.388 667.516 123.94 665.536 125.304 663.83C126.757 662.013 128.716 661.025 130.257 661.179C130.823 660.371 131.64 659.606 132.65 658.999C133.914 658.239 135.254 657.863 136.419 657.862C137.242 657.172 138.359 656.618 139.644 656.326C140.444 656.144 141.229 656.083 141.959 656.127C142.727 655.275 143.928 654.744 145.263 654.78Z" fill="#C9EAE3"/>
<path d="M274.101 556.402C304.324 556.402 328.826 578.936 328.826 606.733C328.826 634.531 304.325 657.065 274.101 657.065C243.877 657.065 219.375 634.531 219.375 606.733C219.375 594.636 224.016 583.535 231.749 574.855C230.94 574.232 230.225 573.472 229.64 572.579C226.618 567.965 228.208 561.579 233.191 558.316C238.175 555.053 244.664 556.148 247.686 560.763C247.999 561.241 248.259 561.739 248.475 562.25C256.12 558.517 264.842 556.402 274.101 556.402Z" fill="#FDEED9"/>
<circle cx="248.013" cy="610.728" r="3.19565" fill="black"/>
<circle cx="277.573" cy="610.728" r="3.19565" fill="black"/>
<path d="M268.903 619.481C269.448 620.027 269.448 620.912 268.902 621.458C268.356 622.003 267.471 622.003 266.926 621.458L262.547 617.079L258.169 621.457C257.623 622.003 256.738 622.003 256.192 621.458C255.646 620.912 255.646 620.026 256.192 619.48L261.558 614.114C262.104 613.568 262.99 613.568 263.536 614.114L268.903 619.481Z" fill="black"/>
<ellipse cx="295.396" cy="631.375" rx="15.3474" ry="13.187" transform="rotate(-42.4448 295.396 631.375)" fill="#FDC99A"/>
<path d="M241.622 640.288C237.743 643.021 231.702 639.3 226.819 632.371C221.937 625.443 220.062 617.93 223.94 615.198C227.818 612.465 235.98 615.546 240.863 622.475C245.746 629.403 245.5 637.555 241.622 640.288Z" fill="#FDC99A"/>
<path d="M275.576 644.682C253.845 646.599 238.826 641.22 234.032 638.291C230.038 637.492 229.239 640.687 228.839 647.878C228.44 655.068 239.225 662.658 258 665.054C273.019 666.972 283.432 660.261 286.761 656.666H309.13C308.997 657.465 308.811 659.781 309.13 662.658C309.53 666.253 312.725 670.247 314.323 673.842C315.921 677.437 316.72 676.639 317.918 676.239C318.877 675.92 317.785 672.644 317.119 671.046C317.519 670.114 318.557 669.049 319.516 672.245C320.475 675.44 321.78 675.706 322.312 675.44C322.845 675.307 323.75 674.641 323.111 673.043C322.312 671.046 322.312 669.049 322.712 669.049C323.111 669.049 323.511 668.25 324.309 670.247C325.108 672.245 326.307 673.443 327.505 673.443C328.464 673.443 328.437 671.845 328.304 671.046C327.771 669.848 326.866 667.371 327.505 667.052C328.304 666.652 328.304 667.451 328.703 668.25C329.103 669.049 330.701 671.046 331.5 670.647C332.139 670.327 332.032 669.182 331.899 668.649C331.1 666.652 329.183 661.939 327.905 659.062C326.307 655.467 326.706 650.674 327.905 648.677C329.103 646.679 328.304 641.886 326.706 638.291C325.108 634.696 324.309 632.299 319.516 633.098C314.722 633.897 302.739 642.285 275.576 644.682Z" fill="#FE6A66"/>
<path d="M311.926 656.666C314.589 656.399 320.634 655.068 323.51 651.872" stroke="#E5564F" stroke-width="3" stroke-linecap="round"/>
<circle cx="313.124" cy="647.079" r="1.99728" fill="#E5564F"/>
<circle cx="318.717" cy="639.09" r="1.99728" fill="#E5564F"/>
<circle cx="322.712" cy="659.861" r="1.99728" fill="#E5564F"/>
<circle cx="317.119" cy="664.655" r="1.99728" fill="#E5564F"/>
<circle cx="301.141" cy="650.274" r="1.99728" fill="#E5564F"/>
<circle cx="301.94" cy="643.883" r="1.99728" fill="#E5564F"/>
<circle cx="287.559" cy="648.677" r="1.99728" fill="#E5564F"/>
<circle cx="268.385" cy="650.274" r="1.99728" fill="#E5564F"/>
<circle cx="251.608" cy="655.068" r="1.99728" fill="#E5564F"/>
<circle cx="250.01" cy="647.079" r="1.99728" fill="#E5564F"/>
<circle cx="236.429" cy="646.28" r="1.99728" fill="#E5564F"/>
<circle cx="330.301" cy="542.022" r="6.3913" fill="white"/>
<path d="M310.328 539.226C299.143 541.143 290.222 547.481 287.16 550.41L295.149 556.003L321.513 569.584C321.646 564.791 322.152 554.245 323.111 550.41C324.069 546.576 328.703 548.014 329.502 543.62C330.009 540.831 323.721 536.93 310.328 539.226Z" fill="#E5564F"/>
<path d="M286.76 549.212C288.848 549.212 290.739 549.967 292.111 551.188C293.826 550.51 295.828 550.452 297.738 551.174C299.208 551.73 300.415 552.668 301.274 553.82C302.465 553.691 303.715 553.834 304.928 554.293C306.192 554.771 307.259 555.533 308.08 556.469C309.497 556.657 310.944 557.169 312.289 558.023C313.778 558.97 314.939 560.209 315.72 561.566C317.915 562.244 320.08 563.845 321.654 566.182C324.677 570.67 324.371 576.166 320.97 578.456C317.57 580.746 312.363 578.965 309.34 574.477C308.807 573.686 308.379 572.862 308.052 572.031C306.79 571.799 305.516 571.312 304.323 570.554C303.272 569.886 302.384 569.072 301.677 568.174C301.068 568.096 300.455 567.948 299.851 567.72C298.381 567.164 297.175 566.224 296.316 565.072C295.125 565.202 293.874 565.058 292.661 564.6C291.366 564.11 290.277 563.322 289.448 562.354C288.612 562.637 287.707 562.793 286.76 562.793C282.569 562.793 279.171 559.753 279.171 556.003C279.171 552.253 282.569 549.212 286.76 549.212Z" fill="white"/>
<path d="M234.155 574.378C235.886 571.582 241.585 565.35 247.337 564.391" stroke="#F4D4AB" stroke-width="3" stroke-linecap="round"/>
<ellipse cx="228.962" cy="664.255" rx="11.1848" ry="12.7826" fill="#7FC296"/>
<path d="M269.307 693.815C267.976 691.418 266.112 685.347 269.307 680.234" stroke="#FAD2AF" stroke-width="3" stroke-linecap="round"/>
<mask id="path-106-inside-5_56_18781" fill="white">
<path d="M235.185 653.071C238.274 653.071 240.875 655.153 241.665 657.99C243.616 657.524 245.674 657.276 247.799 657.276C251.569 657.276 255.123 658.059 258.252 659.444C259.081 657.196 261.242 655.593 263.778 655.593C267.029 655.593 269.664 658.229 269.664 661.48C269.664 663.517 268.629 665.312 267.057 666.369C269.241 669.34 270.505 672.853 270.505 676.618C270.505 681.951 267.971 686.779 263.873 690.278C265.946 693.279 267.142 696.808 267.142 700.585C267.142 711.5 257.164 720.348 244.856 720.348C242.208 720.348 239.668 719.937 237.312 719.185C236.309 720.408 234.787 721.189 233.082 721.189C230.063 721.189 227.616 718.741 227.616 715.722C227.616 714.958 227.774 714.23 228.057 713.57C224.641 710.097 222.571 705.556 222.571 700.585C222.571 695.332 224.882 690.557 228.653 687.017C226.4 684.014 225.094 680.446 225.094 676.618C225.094 671.964 227.023 667.693 230.238 664.356C229.133 663.157 228.457 661.557 228.457 659.798C228.457 656.083 231.469 653.071 235.185 653.071Z"/>
</mask>
<path d="M235.185 653.071C238.274 653.071 240.875 655.153 241.665 657.99C243.616 657.524 245.674 657.276 247.799 657.276C251.569 657.276 255.123 658.059 258.252 659.444C259.081 657.196 261.242 655.593 263.778 655.593C267.029 655.593 269.664 658.229 269.664 661.48C269.664 663.517 268.629 665.312 267.057 666.369C269.241 669.34 270.505 672.853 270.505 676.618C270.505 681.951 267.971 686.779 263.873 690.278C265.946 693.279 267.142 696.808 267.142 700.585C267.142 711.5 257.164 720.348 244.856 720.348C242.208 720.348 239.668 719.937 237.312 719.185C236.309 720.408 234.787 721.189 233.082 721.189C230.063 721.189 227.616 718.741 227.616 715.722C227.616 714.958 227.774 714.23 228.057 713.57C224.641 710.097 222.571 705.556 222.571 700.585C222.571 695.332 224.882 690.557 228.653 687.017C226.4 684.014 225.094 680.446 225.094 676.618C225.094 671.964 227.023 667.693 230.238 664.356C229.133 663.157 228.457 661.557 228.457 659.798C228.457 656.083 231.469 653.071 235.185 653.071Z" fill="white"/>
<path d="M235.185 653.071L235.185 652.071L235.185 652.071L235.185 653.071ZM241.665 657.99L240.702 658.258L240.96 659.186L241.897 658.962L241.665 657.99ZM247.799 657.276L247.799 656.276L247.799 656.276L247.799 657.276ZM258.252 659.444L257.848 660.358L258.822 660.789L259.19 659.79L258.252 659.444ZM263.778 655.593L263.778 654.593L263.778 654.593L263.778 655.593ZM269.664 661.48L270.664 661.48L270.664 661.48L269.664 661.48ZM267.057 666.369L266.499 665.539L265.633 666.12L266.251 666.961L267.057 666.369ZM270.505 676.618L271.505 676.618L271.505 676.618L270.505 676.618ZM263.873 690.278L263.224 689.517L262.538 690.103L263.05 690.846L263.873 690.278ZM267.142 700.585L268.142 700.585V700.585H267.142ZM244.856 720.348L244.856 721.348H244.856V720.348ZM237.312 719.185L237.616 718.232L236.969 718.026L236.538 718.551L237.312 719.185ZM233.082 721.189L233.082 722.189H233.082V721.189ZM227.616 715.722L226.616 715.722V715.722H227.616ZM228.057 713.57L228.976 713.964L229.241 713.347L228.77 712.868L228.057 713.57ZM222.571 700.585L221.571 700.585L221.571 700.585L222.571 700.585ZM228.653 687.017L229.337 687.746L229.99 687.133L229.453 686.417L228.653 687.017ZM225.094 676.618L224.094 676.618V676.618H225.094ZM230.238 664.356L230.958 665.05L231.611 664.371L230.973 663.678L230.238 664.356ZM228.457 659.798L227.457 659.798V659.798H228.457ZM235.185 653.071V654.071C237.813 654.071 240.029 655.842 240.702 658.258L241.665 657.99L242.629 657.721C241.721 654.463 238.735 652.071 235.185 652.071V653.071ZM241.665 657.99L241.897 658.962C243.772 658.515 245.752 658.276 247.799 658.276L247.799 657.276L247.799 656.276C245.596 656.276 243.461 656.533 241.433 657.017L241.665 657.99ZM247.799 657.276V658.276C251.43 658.276 254.847 659.03 257.848 660.358L258.252 659.444L258.657 658.529C255.4 657.088 251.707 656.276 247.799 656.276V657.276ZM258.252 659.444L259.19 659.79C259.879 657.922 261.675 656.593 263.778 656.593L263.778 655.593L263.778 654.593C260.81 654.593 258.283 656.47 257.314 659.098L258.252 659.444ZM263.778 655.593V656.593C266.476 656.593 268.664 658.781 268.664 661.48L269.664 661.48L270.664 661.48C270.664 657.677 267.581 654.593 263.778 654.593V655.593ZM269.664 661.48H268.664C268.664 663.17 267.807 664.659 266.499 665.539L267.057 666.369L267.615 667.198C269.451 665.964 270.664 663.864 270.664 661.48H269.664ZM267.057 666.369L266.251 666.961C268.32 669.776 269.505 673.084 269.505 676.618L270.505 676.618L271.505 676.618C271.505 672.622 270.162 668.905 267.863 665.776L267.057 666.369ZM270.505 676.618H269.505C269.505 681.618 267.132 686.181 263.224 689.517L263.873 690.278L264.523 691.038C268.811 687.377 271.505 682.283 271.505 676.618H270.505ZM263.873 690.278L263.05 690.846C265.016 693.692 266.142 697.025 266.142 700.585H267.142H268.142C268.142 696.592 266.876 692.866 264.696 689.709L263.873 690.278ZM267.142 700.585L266.142 700.585C266.142 710.838 256.728 719.348 244.856 719.348V720.348V721.348C257.599 721.348 268.142 712.162 268.142 700.585L267.142 700.585ZM244.856 720.348L244.856 719.348C242.311 719.348 239.874 718.953 237.616 718.232L237.312 719.185L237.008 720.138C239.462 720.92 242.104 721.348 244.856 721.348L244.856 720.348ZM237.312 719.185L236.538 718.551C235.718 719.552 234.474 720.189 233.082 720.189V721.189V722.189C235.099 722.189 236.901 721.263 238.085 719.819L237.312 719.185ZM233.082 721.189L233.082 720.189C230.616 720.189 228.616 718.189 228.616 715.722H227.616H226.616C226.616 719.293 229.511 722.189 233.082 722.189L233.082 721.189ZM227.616 715.722L228.616 715.722C228.616 715.096 228.745 714.502 228.976 713.964L228.057 713.57L227.138 713.176C226.802 713.958 226.616 714.82 226.616 715.722L227.616 715.722ZM228.057 713.57L228.77 712.868C225.518 709.563 223.571 705.267 223.571 700.585L222.571 700.585L221.571 700.585C221.571 705.844 223.763 710.631 227.344 714.271L228.057 713.57ZM222.571 700.585H223.571C223.571 695.637 225.746 691.118 229.337 687.746L228.653 687.017L227.968 686.288C224.019 689.996 221.571 695.026 221.571 700.585H222.571ZM228.653 687.017L229.453 686.417C227.318 683.571 226.094 680.211 226.094 676.618H225.094H224.094C224.094 680.681 225.482 684.456 227.853 687.617L228.653 687.017ZM225.094 676.618L226.094 676.618C226.094 672.252 227.901 668.223 230.958 665.05L230.238 664.356L229.517 663.662C226.144 667.164 224.094 671.676 224.094 676.618L225.094 676.618ZM230.238 664.356L230.973 663.678C230.031 662.657 229.457 661.296 229.457 659.798H228.457H227.457C227.457 661.818 228.234 663.658 229.502 665.034L230.238 664.356ZM228.457 659.798L229.457 659.798C229.457 656.635 232.022 654.071 235.185 654.071L235.185 653.071L235.185 652.071C230.917 652.071 227.457 655.53 227.457 659.798L228.457 659.798Z" fill="#D7E4EC" mask="url(#path-106-inside-5_56_18781)"/>
<path d="M232.662 687.971C235.606 690.213 244.856 693.857 258.312 690.493M230.56 712.358C232.662 711.377 237.035 710.845 237.708 716.563" stroke="#D7E4EC" stroke-width="3" stroke-linecap="round"/>
<path d="M276.897 654.269C273.701 655.228 274.234 658.929 274.899 660.66C266.511 662.258 267.709 672.644 271.304 677.437C274.899 682.231 288.082 682.231 292.476 677.437C296.87 672.644 296.47 663.457 292.476 659.062C289.28 655.547 284.486 655.467 282.489 655.867C281.956 654.935 280.092 653.31 276.897 654.269Z" fill="#7FC296"/>
<path d="M275.698 661.06C277.03 661.326 280.092 661.619 281.69 660.66C283.288 659.702 283.954 658.929 284.087 658.663" stroke="#5B8D6C" stroke-linecap="round"/>
<path d="M293.274 655.467C294.818 655.467 296.071 656.719 296.071 658.263C296.071 658.408 296.055 658.55 296.034 658.689C297.407 658.867 298.468 660.038 298.468 661.46C298.468 661.699 298.433 661.93 298.377 662.152C299.37 662.703 300.065 663.974 300.065 665.454C300.065 666.193 299.891 666.879 299.594 667.451C299.891 668.022 300.065 668.709 300.065 669.449C300.065 670.546 299.681 671.526 299.079 672.185C299.221 672.972 299.102 673.881 298.68 674.74C297.806 676.522 295.973 677.416 294.587 676.736C293.2 676.056 292.785 674.058 293.66 672.276C293.931 671.723 294.295 671.255 294.709 670.893C294.558 670.451 294.472 669.963 294.472 669.449C294.472 668.71 294.646 668.022 294.943 667.451C294.646 666.88 294.472 666.193 294.472 665.454C294.472 664.964 294.549 664.498 294.686 664.073C293.629 663.674 292.875 662.657 292.875 661.46C292.875 661.314 292.889 661.172 292.91 661.033C291.538 660.854 290.478 659.684 290.478 658.263C290.478 656.719 291.73 655.468 293.274 655.467Z" fill="white"/>
<path d="M299.666 675.041C301.796 675.307 307.096 675.28 311.25 673.043" stroke="#FAD2AF" stroke-width="3" stroke-linecap="round"/>
<path d="M115.61 147.05H129.08V160.52H115.61V147.05ZM125.18 150.23H119.54V157.34H125.18V150.23ZM133.31 144.89H137.3V164.63H133.31V144.89ZM118.79 168.89H138.02V172.07H118.79V168.89ZM118.79 162.86H122.78V170.3H118.79V162.86ZM150.018 149.27H153.198V152.39C153.198 153.99 153.028 155.56 152.688 157.1C152.368 158.64 151.878 160.09 151.218 161.45C150.578 162.79 149.768 163.98 148.788 165.02C147.808 166.04 146.668 166.85 145.368 167.45L143.088 164.3C144.248 163.76 145.258 163.06 146.118 162.2C146.998 161.34 147.718 160.38 148.278 159.32C148.858 158.24 149.288 157.11 149.568 155.93C149.868 154.73 150.018 153.55 150.018 152.39V149.27ZM150.888 149.27H154.038V152.39C154.038 153.49 154.178 154.61 154.458 155.75C154.758 156.87 155.188 157.94 155.748 158.96C156.308 159.96 157.018 160.86 157.878 161.66C158.738 162.46 159.758 163.1 160.938 163.58L158.748 166.76C157.428 166.18 156.278 165.4 155.298 164.42C154.318 163.44 153.498 162.31 152.838 161.03C152.178 159.75 151.688 158.38 151.368 156.92C151.048 155.44 150.888 153.93 150.888 152.39V149.27ZM144.198 147.53H159.798V150.83H144.198V147.53ZM162.378 144.89H166.368V172.67H162.378V144.89ZM195.478 170.341L184.526 159.389C183.652 158.516 183.07 157.5 182.779 156.342C182.495 155.185 182.498 154.034 182.789 152.891C183.081 151.74 183.659 150.739 184.526 149.886C185.414 149.013 186.426 148.434 187.562 148.15C188.706 147.859 189.846 147.859 190.982 148.15C192.125 148.441 193.141 149.02 194.029 149.886L195.478 151.293L196.926 149.886C197.821 149.02 198.837 148.441 199.973 148.15C201.11 147.859 202.246 147.859 203.382 148.15C204.526 148.434 205.542 149.013 206.429 149.886C207.296 150.739 207.875 151.74 208.166 152.891C208.457 154.034 208.457 155.185 208.166 156.342C207.882 157.5 207.303 158.516 206.429 159.389L195.478 170.341ZM227.162 145.88H231.092V148.58H241.952V145.88H245.912V157.19H227.162V145.88ZM231.092 151.67V154.07H241.952V151.67H231.092ZM223.952 159.56H249.092V162.71H223.952V159.56ZM234.512 155.54H238.472V160.88H234.512V155.54ZM227.012 168.98H246.272V172.19H227.012V168.98ZM227.012 164.36H231.002V170.18H227.012V164.36ZM267.24 150.05H272.91V153.29H267.24V150.05ZM259.41 146.3H262.68V148.91C262.68 150.75 262.4 152.48 261.84 154.1C261.3 155.7 260.46 157.1 259.32 158.3C258.2 159.5 256.76 160.4 255 161L252.87 157.88C254.43 157.36 255.69 156.64 256.65 155.72C257.61 154.78 258.31 153.73 258.75 152.57C259.19 151.39 259.41 150.17 259.41 148.91V146.3ZM260.22 146.3H263.46V149.15C263.46 150.01 263.58 150.86 263.82 151.7C264.06 152.52 264.43 153.3 264.93 154.04C265.43 154.78 266.07 155.44 266.85 156.02C267.63 156.6 268.57 157.07 269.67 157.43L267.57 160.55C265.91 159.97 264.53 159.11 263.43 157.97C262.35 156.83 261.54 155.51 261 154.01C260.48 152.49 260.22 150.87 260.22 149.15V146.3ZM257.37 162.65H276.33V172.67H272.31V165.83H257.37V162.65ZM272.31 144.89H276.33V161.42H272.31V144.89Z" fill="white"/>
<path d="M104.947 369V366.145L112.521 358.719C113.246 357.988 113.849 357.338 114.332 356.77C114.815 356.202 115.178 355.651 115.419 355.119C115.661 354.586 115.781 354.018 115.781 353.414C115.781 352.725 115.625 352.136 115.312 351.646C115 351.148 114.57 350.765 114.023 350.495C113.477 350.225 112.855 350.09 112.159 350.09C111.442 350.09 110.813 350.239 110.273 350.538C109.734 350.829 109.315 351.244 109.016 351.784C108.725 352.324 108.58 352.967 108.58 353.712H104.819C104.819 352.327 105.135 351.124 105.767 350.101C106.399 349.078 107.269 348.286 108.377 347.725C109.492 347.164 110.771 346.884 112.212 346.884C113.675 346.884 114.961 347.157 116.069 347.704C117.177 348.251 118.036 349 118.647 349.952C119.265 350.903 119.574 351.99 119.574 353.212C119.574 354.028 119.418 354.831 119.105 355.619C118.793 356.408 118.242 357.281 117.454 358.24C116.673 359.199 115.575 360.36 114.162 361.724L110.401 365.548V365.697H119.904V369H104.947ZM133.144 369.415C131.39 369.415 129.884 368.972 128.627 368.084C127.377 367.189 126.415 365.9 125.74 364.217C125.072 362.526 124.739 360.491 124.739 358.112C124.746 355.733 125.083 353.709 125.751 352.04C126.425 350.364 127.388 349.085 128.638 348.205C129.895 347.324 131.397 346.884 133.144 346.884C134.891 346.884 136.393 347.324 137.651 348.205C138.908 349.085 139.87 350.364 140.538 352.04C141.212 353.716 141.55 355.74 141.55 358.112C141.55 360.499 141.212 362.537 140.538 364.227C139.87 365.911 138.908 367.196 137.651 368.084C136.401 368.972 134.898 369.415 133.144 369.415ZM133.144 366.081C134.508 366.081 135.584 365.41 136.372 364.067C137.168 362.718 137.565 360.733 137.565 358.112C137.565 356.379 137.384 354.923 137.022 353.744C136.66 352.565 136.148 351.678 135.488 351.081C134.827 350.477 134.046 350.175 133.144 350.175C131.788 350.175 130.715 350.85 129.927 352.2C129.138 353.542 128.741 355.513 128.734 358.112C128.727 359.852 128.901 361.315 129.256 362.501C129.618 363.687 130.129 364.582 130.79 365.186C131.45 365.783 132.235 366.081 133.144 366.081ZM154.654 369.415C152.9 369.415 151.394 368.972 150.137 368.084C148.887 367.189 147.925 365.9 147.25 364.217C146.582 362.526 146.248 360.491 146.248 358.112C146.256 355.733 146.593 353.709 147.26 352.04C147.935 350.364 148.898 349.085 150.148 348.205C151.405 347.324 152.907 346.884 154.654 346.884C156.401 346.884 157.903 347.324 159.16 348.205C160.417 349.085 161.38 350.364 162.047 352.04C162.722 353.716 163.059 355.74 163.059 358.112C163.059 360.499 162.722 362.537 162.047 364.227C161.38 365.911 160.417 367.196 159.16 368.084C157.91 368.972 156.408 369.415 154.654 369.415ZM154.654 366.081C156.018 366.081 157.094 365.41 157.882 364.067C158.677 362.718 159.075 360.733 159.075 358.112C159.075 356.379 158.894 354.923 158.532 353.744C158.17 352.565 157.658 351.678 156.998 351.081C156.337 350.477 155.556 350.175 154.654 350.175C153.297 350.175 152.225 350.85 151.437 352.2C150.648 353.542 150.251 355.513 150.243 358.112C150.236 359.852 150.41 361.315 150.765 362.501C151.128 363.687 151.639 364.582 152.3 365.186C152.96 365.783 153.745 366.081 154.654 366.081ZM175.19 344.67C176.63 344.67 177.9 344.95 179 345.51C180.12 346.05 181 346.8 181.64 347.76C182.3 348.7 182.63 349.79 182.63 351.03C182.63 352.27 182.3 353.37 181.64 354.33C181 355.27 180.12 356.01 179 356.55C177.9 357.09 176.63 357.36 175.19 357.36C173.79 357.36 172.53 357.09 171.41 356.55C170.29 356.01 169.4 355.27 168.74 354.33C168.1 353.37 167.78 352.27 167.78 351.03C167.78 349.79 168.1 348.69 168.74 347.73C169.4 346.77 170.29 346.02 171.41 345.48C172.53 344.94 173.79 344.67 175.19 344.67ZM175.22 347.91C174.54 347.91 173.93 348.04 173.39 348.3C172.85 348.54 172.42 348.89 172.1 349.35C171.8 349.81 171.65 350.37 171.65 351.03C171.65 351.69 171.8 352.26 172.1 352.74C172.42 353.2 172.84 353.55 173.36 353.79C173.9 354.03 174.52 354.15 175.22 354.15C175.9 354.15 176.5 354.03 177.02 353.79C177.56 353.55 177.98 353.2 178.28 352.74C178.6 352.26 178.76 351.69 178.76 351.03C178.76 350.37 178.6 349.81 178.28 349.35C177.98 348.89 177.56 348.54 177.02 348.3C176.48 348.04 175.88 347.91 175.22 347.91ZM186.47 343.89H190.46V357.78H186.47V343.89ZM171.95 358.92H190.46V366.51H175.91V369.9H171.98V363.63H186.5V361.98H171.95V358.92ZM171.98 368.25H191.15V371.37H171.98V368.25ZM215.959 359.79H219.949V363.9H215.959V359.79ZM205.399 357.54H230.539V360.72H205.399V357.54ZM208.189 363.06H227.509V371.64H223.519V366.21H208.189V363.06ZM215.959 343.89H219.949V347.97H215.959V343.89ZM215.719 348.3H219.229V348.84C219.229 349.9 218.979 350.87 218.479 351.75C217.999 352.63 217.269 353.41 216.289 354.09C215.309 354.77 214.099 355.32 212.659 355.74C211.219 356.16 209.549 356.44 207.649 356.58L206.479 353.58C208.159 353.48 209.579 353.28 210.739 352.98C211.919 352.68 212.869 352.31 213.589 351.87C214.329 351.43 214.869 350.95 215.209 350.43C215.549 349.91 215.719 349.38 215.719 348.84V348.3ZM216.679 348.3H220.189V348.84C220.189 349.38 220.359 349.91 220.699 350.43C221.039 350.95 221.569 351.43 222.289 351.87C223.029 352.31 223.979 352.68 225.139 352.98C226.319 353.28 227.749 353.48 229.429 353.58L228.259 356.58C226.359 356.44 224.689 356.16 223.249 355.74C221.809 355.32 220.599 354.77 219.619 354.09C218.639 353.41 217.899 352.63 217.399 351.75C216.919 350.87 216.679 349.9 216.679 348.84V348.3ZM207.799 346.41H228.109V349.47H207.799V346.41ZM252.317 343.89H256.307V371.67H252.317V343.89ZM255.407 354.72H260.297V358.02H255.407V354.72ZM234.377 347.97H250.577V351.15H234.377V347.97ZM242.537 352.74C243.877 352.74 245.077 353.03 246.137 353.61C247.197 354.17 248.027 354.94 248.627 355.92C249.247 356.9 249.557 358.04 249.557 359.34C249.557 360.64 249.247 361.79 248.627 362.79C248.027 363.77 247.197 364.55 246.137 365.13C245.097 365.69 243.897 365.97 242.537 365.97C241.197 365.97 239.987 365.69 238.907 365.13C237.847 364.55 237.007 363.77 236.387 362.79C235.787 361.79 235.487 360.64 235.487 359.34C235.487 358.04 235.787 356.9 236.387 355.92C237.007 354.94 237.847 354.17 238.907 353.61C239.987 353.03 241.197 352.74 242.537 352.74ZM242.537 355.98C241.897 355.98 241.337 356.11 240.857 356.37C240.377 356.63 239.997 357.01 239.717 357.51C239.437 358.01 239.297 358.62 239.297 359.34C239.297 360.04 239.437 360.65 239.717 361.17C239.997 361.67 240.377 362.06 240.857 362.34C241.337 362.6 241.897 362.73 242.537 362.73C243.157 362.73 243.707 362.6 244.187 362.34C244.667 362.06 245.047 361.67 245.327 361.17C245.607 360.65 245.747 360.04 245.747 359.34C245.747 358.62 245.607 358.01 245.327 357.51C245.047 357.01 244.667 356.63 244.187 356.37C243.707 356.11 243.157 355.98 242.537 355.98ZM240.497 344.34H244.517V349.2H240.497V344.34ZM263.595 348.06H276.885V351.21H263.595V348.06ZM270.285 352.47C271.465 352.47 272.505 352.75 273.405 353.31C274.325 353.87 275.045 354.65 275.565 355.65C276.105 356.63 276.375 357.77 276.375 359.07C276.375 360.37 276.105 361.52 275.565 362.52C275.045 363.5 274.325 364.27 273.405 364.83C272.505 365.39 271.465 365.67 270.285 365.67C269.105 365.67 268.055 365.39 267.135 364.83C266.215 364.27 265.495 363.5 264.975 362.52C264.455 361.52 264.195 360.37 264.195 359.07C264.195 357.77 264.455 356.63 264.975 355.65C265.495 354.65 266.215 353.87 267.135 353.31C268.075 352.75 269.125 352.47 270.285 352.47ZM270.285 355.77C269.805 355.77 269.365 355.9 268.965 356.16C268.565 356.42 268.255 356.8 268.035 357.3C267.815 357.78 267.705 358.37 267.705 359.07C267.705 359.77 267.815 360.37 268.035 360.87C268.255 361.37 268.565 361.75 268.965 362.01C269.365 362.25 269.805 362.37 270.285 362.37C270.785 362.37 271.225 362.25 271.605 362.01C271.985 361.75 272.285 361.37 272.505 360.87C272.725 360.37 272.835 359.77 272.835 359.07C272.835 358.37 272.725 357.78 272.505 357.3C272.285 356.8 271.985 356.42 271.605 356.16C271.225 355.9 270.785 355.77 270.285 355.77ZM283.695 343.86H287.475V371.64H283.695V343.86ZM280.365 355.17H284.925V358.38H280.365V355.17ZM277.845 344.37H281.565V370.47H277.845V344.37ZM268.335 344.61H272.265V350.04H268.335V344.61ZM50.7845 391.24H53.4445V401.5H50.7845V391.24ZM52.7045 395.3H55.9045V397.48H52.7045V395.3ZM41.3445 402.34H53.8045V404.44H41.3445V402.34ZM41.1845 407.4H54.0245V409.5H41.1845V407.4ZM43.5645 402.86H46.1845V408.42H43.5645V402.86ZM48.9845 402.86H51.5845V408.42H48.9845V402.86ZM44.0245 392.2C44.9845 392.2 45.8445 392.393 46.6045 392.78C47.3645 393.153 47.9645 393.673 48.4045 394.34C48.8445 395.007 49.0645 395.773 49.0645 396.64C49.0645 397.507 48.8445 398.273 48.4045 398.94C47.9645 399.607 47.3645 400.133 46.6045 400.52C45.8445 400.893 44.9845 401.08 44.0245 401.08C43.0645 401.08 42.2045 400.893 41.4445 400.52C40.6845 400.133 40.0845 399.607 39.6445 398.94C39.2178 398.273 39.0045 397.507 39.0045 396.64C39.0045 395.773 39.2178 395.007 39.6445 394.34C40.0845 393.673 40.6845 393.153 41.4445 392.78C42.2045 392.393 43.0645 392.2 44.0245 392.2ZM44.0245 394.4C43.5711 394.4 43.1578 394.487 42.7845 394.66C42.4111 394.833 42.1178 395.087 41.9045 395.42C41.7045 395.753 41.6045 396.16 41.6045 396.64C41.6045 397.107 41.7045 397.513 41.9045 397.86C42.1178 398.193 42.4111 398.447 42.7845 398.62C43.1578 398.793 43.5711 398.88 44.0245 398.88C44.5045 398.88 44.9245 398.793 45.2845 398.62C45.6445 398.447 45.9311 398.193 46.1445 397.86C46.3578 397.513 46.4645 397.107 46.4645 396.64C46.4645 396.16 46.3578 395.753 46.1445 395.42C45.9311 395.087 45.6445 394.833 45.2845 394.66C44.9245 394.487 44.5045 394.4 44.0245 394.4ZM66.6429 392.18C67.9496 392.18 69.1229 392.4 70.1629 392.84C71.2162 393.28 72.0429 393.9 72.6429 394.7C73.2562 395.5 73.5629 396.44 73.5629 397.52C73.5629 398.6 73.2562 399.547 72.6429 400.36C72.0429 401.16 71.2162 401.78 70.1629 402.22C69.1229 402.66 67.9496 402.88 66.6429 402.88C65.3496 402.88 64.1762 402.66 63.1229 402.22C62.0829 401.78 61.2562 401.16 60.6429 400.36C60.0296 399.547 59.7229 398.6 59.7229 397.52C59.7229 396.44 60.0296 395.5 60.6429 394.7C61.2562 393.9 62.0829 393.28 63.1229 392.84C64.1762 392.4 65.3496 392.18 66.6429 392.18ZM66.6429 394.34C65.8162 394.34 65.0762 394.467 64.4229 394.72C63.7696 394.973 63.2562 395.34 62.8829 395.82C62.5229 396.287 62.3429 396.853 62.3429 397.52C62.3429 398.187 62.5229 398.76 62.8829 399.24C63.2562 399.707 63.7696 400.067 64.4229 400.32C65.0762 400.573 65.8162 400.7 66.6429 400.7C67.4962 400.7 68.2429 400.573 68.8829 400.32C69.5362 400.067 70.0429 399.707 70.4029 399.24C70.7762 398.76 70.9629 398.187 70.9629 397.52C70.9629 396.853 70.7762 396.287 70.4029 395.82C70.0429 395.34 69.5362 394.973 68.8829 394.72C68.2429 394.467 67.4962 394.34 66.6429 394.34ZM58.2829 405.36H75.0629V407.54H58.2829V405.36ZM77.6813 405.58H94.4613V407.74H77.6813V405.58ZM84.7213 402.06H87.3613V406.44H84.7213V402.06ZM79.5813 392.44H92.5613V398.62H82.2413V401.72H79.6013V396.54H89.9213V394.56H79.5813V392.44ZM79.6013 400.68H92.9813V402.8H79.6013V400.68ZM110.081 401.66H112.721V405.88H110.081V401.66ZM111.401 392.2C112.721 392.2 113.901 392.413 114.941 392.84C115.994 393.253 116.821 393.84 117.421 394.6C118.021 395.36 118.321 396.26 118.321 397.3C118.321 398.327 118.021 399.227 117.421 400C116.821 400.773 115.994 401.373 114.941 401.8C113.901 402.213 112.721 402.42 111.401 402.42C110.094 402.42 108.914 402.213 107.861 401.8C106.821 401.373 105.994 400.773 105.381 400C104.781 399.227 104.481 398.327 104.481 397.3C104.481 396.26 104.781 395.36 105.381 394.6C105.994 393.84 106.821 393.253 107.861 392.84C108.914 392.413 110.094 392.2 111.401 392.2ZM111.401 394.3C110.561 394.3 109.814 394.42 109.161 394.66C108.521 394.9 108.014 395.24 107.641 395.68C107.281 396.12 107.101 396.66 107.101 397.3C107.101 397.927 107.281 398.467 107.641 398.92C108.014 399.36 108.521 399.7 109.161 399.94C109.814 400.18 110.561 400.3 111.401 400.3C112.254 400.3 113.001 400.18 113.641 399.94C114.294 399.7 114.801 399.36 115.161 398.92C115.521 398.467 115.701 397.927 115.701 397.3C115.701 396.66 115.521 396.12 115.161 395.68C114.801 395.24 114.294 394.9 113.641 394.66C113.001 394.42 112.254 394.3 111.401 394.3ZM103.041 405.46H119.821V407.62H103.041V405.46ZM122.939 403.5H124.239C125.346 403.5 126.406 403.48 127.419 403.44C128.432 403.387 129.512 403.267 130.659 403.08L130.859 405.24C129.672 405.44 128.552 405.567 127.499 405.62C126.459 405.66 125.372 405.68 124.239 405.68H122.939V403.5ZM122.899 393.06H129.919V400.22H125.519V404.28H122.939V398.12H127.359V395.16H122.899V393.06ZM135.799 391.24H138.339V409.76H135.799V391.24ZM133.339 398.24H136.419V400.38H133.339V398.24ZM131.659 391.56H134.119V408.9H131.659V391.56ZM154.839 401.66H157.479V405.88H154.839V401.66ZM156.159 392.2C157.479 392.2 158.659 392.413 159.699 392.84C160.752 393.253 161.579 393.84 162.179 394.6C162.779 395.36 163.079 396.26 163.079 397.3C163.079 398.327 162.779 399.227 162.179 400C161.579 400.773 160.752 401.373 159.699 401.8C158.659 402.213 157.479 402.42 156.159 402.42C154.852 402.42 153.672 402.213 152.619 401.8C151.579 401.373 150.752 400.773 150.139 400C149.539 399.227 149.239 398.327 149.239 397.3C149.239 396.26 149.539 395.36 150.139 394.6C150.752 393.84 151.579 393.253 152.619 392.84C153.672 392.413 154.852 392.2 156.159 392.2ZM156.159 394.3C155.319 394.3 154.572 394.42 153.919 394.66C153.279 394.9 152.772 395.24 152.399 395.68C152.039 396.12 151.859 396.66 151.859 397.3C151.859 397.927 152.039 398.467 152.399 398.92C152.772 399.36 153.279 399.7 153.919 399.94C154.572 400.18 155.319 400.3 156.159 400.3C157.012 400.3 157.759 400.18 158.399 399.94C159.052 399.7 159.559 399.36 159.919 398.92C160.279 398.467 160.459 397.927 160.459 397.3C160.459 396.66 160.279 396.12 159.919 395.68C159.559 395.24 159.052 394.9 158.399 394.66C157.759 394.42 157.012 394.3 156.159 394.3ZM147.799 405.46H164.579V407.62H147.799V405.46ZM167.697 403.5H168.997C170.104 403.5 171.164 403.48 172.177 403.44C173.19 403.387 174.27 403.267 175.417 403.08L175.617 405.24C174.43 405.44 173.31 405.567 172.257 405.62C171.217 405.66 170.13 405.68 168.997 405.68H167.697V403.5ZM167.657 393.06H174.677V400.22H170.277V404.28H167.697V398.12H172.117V395.16H167.657V393.06ZM180.557 391.24H183.097V409.76H180.557V391.24ZM178.097 398.24H181.177V400.38H178.097V398.24ZM176.417 391.56H178.877V408.9H176.417V391.56ZM205.796 391.26H208.336V402.86H205.796V391.26ZM203.556 395.82H206.496V397.98H203.556V395.82ZM201.976 391.6H204.456V402.24H201.976V391.6ZM192.456 393.14H201.456V395.2H192.456V393.14ZM196.976 395.78C197.763 395.78 198.456 395.92 199.056 396.2C199.656 396.48 200.123 396.86 200.456 397.34C200.803 397.82 200.976 398.38 200.976 399.02C200.976 399.66 200.803 400.227 200.456 400.72C200.123 401.2 199.656 401.58 199.056 401.86C198.456 402.127 197.763 402.26 196.976 402.26C196.216 402.26 195.53 402.127 194.916 401.86C194.316 401.58 193.843 401.2 193.496 400.72C193.15 400.227 192.976 399.66 192.976 399.02C192.976 398.38 193.15 397.82 193.496 397.34C193.843 396.86 194.316 396.48 194.916 396.2C195.53 395.92 196.216 395.78 196.976 395.78ZM196.976 397.7C196.496 397.7 196.103 397.813 195.796 398.04C195.503 398.267 195.356 398.593 195.356 399.02C195.356 399.447 195.503 399.78 195.796 400.02C196.103 400.247 196.496 400.36 196.976 400.36C197.456 400.36 197.85 400.247 198.156 400.02C198.463 399.78 198.616 399.447 198.616 399.02C198.616 398.593 198.463 398.267 198.156 398.04C197.863 397.813 197.47 397.7 196.976 397.7ZM195.656 391.44H198.276V394.56H195.656V391.44ZM202.056 403.04C204.043 403.04 205.603 403.333 206.736 403.92C207.87 404.507 208.436 405.34 208.436 406.42C208.436 407.487 207.87 408.313 206.736 408.9C205.603 409.487 204.043 409.78 202.056 409.78C200.07 409.78 198.51 409.487 197.376 408.9C196.256 408.313 195.696 407.487 195.696 406.42C195.696 405.34 196.256 404.507 197.376 403.92C198.51 403.333 200.07 403.04 202.056 403.04ZM202.076 405.02C200.836 405.02 199.903 405.133 199.276 405.36C198.65 405.587 198.336 405.94 198.336 406.42C198.336 406.887 198.65 407.233 199.276 407.46C199.903 407.687 200.836 407.8 202.076 407.8C203.29 407.8 204.203 407.687 204.816 407.46C205.443 407.233 205.756 406.887 205.756 406.42C205.756 405.94 205.443 405.587 204.816 405.36C204.203 405.133 203.29 405.02 202.076 405.02ZM211.935 400.4H228.695V402.52H211.935V400.4ZM218.975 398.04H221.615V400.84H218.975V398.04ZM213.795 403.8H226.675V409.78H224.015V405.88H213.795V403.8ZM214.075 391.72H216.695V393.34H223.935V391.72H226.575V398.86H214.075V391.72ZM216.695 395.34V396.78H223.935V395.34H216.695ZM243.213 391.26H245.873V409.78H243.213V391.26ZM245.273 398.48H248.533V400.68H245.273V398.48ZM231.253 393.98H242.053V396.1H231.253V393.98ZM236.693 397.16C237.587 397.16 238.387 397.353 239.093 397.74C239.8 398.113 240.353 398.627 240.753 399.28C241.167 399.933 241.373 400.693 241.373 401.56C241.373 402.427 241.167 403.193 240.753 403.86C240.353 404.513 239.8 405.033 239.093 405.42C238.4 405.793 237.6 405.98 236.693 405.98C235.8 405.98 234.993 405.793 234.273 405.42C233.567 405.033 233.007 404.513 232.593 403.86C232.193 403.193 231.993 402.427 231.993 401.56C231.993 400.693 232.193 399.933 232.593 399.28C233.007 398.627 233.567 398.113 234.273 397.74C234.993 397.353 235.8 397.16 236.693 397.16ZM236.693 399.32C236.267 399.32 235.893 399.407 235.573 399.58C235.253 399.753 235 400.007 234.813 400.34C234.627 400.673 234.533 401.08 234.533 401.56C234.533 402.027 234.627 402.433 234.813 402.78C235 403.113 235.253 403.373 235.573 403.56C235.893 403.733 236.267 403.82 236.693 403.82C237.107 403.82 237.473 403.733 237.793 403.56C238.113 403.373 238.367 403.113 238.553 402.78C238.74 402.433 238.833 402.027 238.833 401.56C238.833 401.08 238.74 400.673 238.553 400.34C238.367 400.007 238.113 399.753 237.793 399.58C237.473 399.407 237.107 399.32 236.693 399.32ZM235.333 391.56H238.013V394.8H235.333V391.56ZM264.152 391.24H266.692V409.76H264.152V391.24ZM256.832 398.34H260.772V400.46H256.832V398.34ZM260.252 391.64H262.732V408.94H260.252V391.64ZM256.232 393.42H258.792C258.792 395.18 258.585 396.82 258.172 398.34C257.758 399.86 257.058 401.253 256.072 402.52C255.098 403.787 253.745 404.92 252.012 405.92L250.512 404.06C251.912 403.22 253.025 402.307 253.852 401.32C254.692 400.32 255.298 399.22 255.672 398.02C256.045 396.807 256.232 395.453 256.232 393.96V393.42ZM251.532 393.42H257.052V395.56H251.532V393.42ZM276.631 392.76H285.471V401.72H276.631V392.76ZM282.851 394.88H279.251V399.62H282.851V394.88ZM288.011 391.26H290.671V404.76H288.011V391.26ZM289.931 396.6H293.131V398.78H289.931V396.6ZM278.731 407.32H291.331V409.46H278.731V407.32ZM278.731 403.44H281.411V408.4H278.731V403.44ZM309.329 398.24H312.589V400.44H309.329V398.24ZM307.329 391.22H310.009V409.74H307.329V391.22ZM296.069 393H298.709V404.52H296.069V393ZM296.069 403.02H297.649C298.969 403.02 300.343 402.967 301.769 402.86C303.196 402.753 304.656 402.553 306.149 402.26L306.429 404.42C304.883 404.74 303.376 404.96 301.909 405.08C300.443 405.187 299.023 405.24 297.649 405.24H296.069V403.02ZM319.048 394.18H321.148V396.26C321.148 397.287 321.035 398.313 320.808 399.34C320.595 400.367 320.275 401.333 319.848 402.24C319.421 403.133 318.881 403.933 318.228 404.64C317.588 405.347 316.841 405.9 315.988 406.3L314.488 404.2C315.261 403.84 315.928 403.367 316.488 402.78C317.061 402.193 317.535 401.54 317.908 400.82C318.295 400.1 318.581 399.353 318.768 398.58C318.955 397.793 319.048 397.02 319.048 396.26V394.18ZM319.608 394.18H321.708V396.26C321.708 396.953 321.801 397.667 321.988 398.4C322.175 399.133 322.448 399.84 322.808 400.52C323.181 401.2 323.648 401.82 324.208 402.38C324.781 402.927 325.448 403.373 326.208 403.72L324.728 405.84C323.875 405.44 323.128 404.907 322.488 404.24C321.861 403.56 321.328 402.793 320.888 401.94C320.461 401.073 320.141 400.16 319.928 399.2C319.715 398.227 319.608 397.247 319.608 396.26V394.18ZM315.208 393.02H325.388V395.22H315.208V393.02ZM326.728 391.26H329.408V409.78H326.728V391.26ZM328.828 398.32H332.088V400.5H328.828V398.32ZM343.714 408.227L336.412 400.926C335.83 400.344 335.442 399.667 335.248 398.895C335.058 398.123 335.061 397.356 335.255 396.594C335.449 395.827 335.835 395.159 336.412 394.591C337.004 394.009 337.679 393.623 338.437 393.433C339.199 393.239 339.959 393.239 340.716 393.433C341.479 393.627 342.156 394.013 342.748 394.591L343.714 395.528L344.68 394.591C345.276 394.013 345.953 393.627 346.711 393.433C347.468 393.239 348.226 393.239 348.983 393.433C349.746 393.623 350.423 394.009 351.015 394.591C351.592 395.159 351.978 395.827 352.172 396.594C352.367 397.356 352.367 398.123 352.172 398.895C351.983 399.667 351.597 400.344 351.015 400.926L343.714 408.227Z" fill="white"/>
<path d="M167.455 127H164.004V116.818H167.524C168.535 116.818 169.403 117.022 170.129 117.43C170.858 117.834 171.419 118.416 171.81 119.175C172.201 119.934 172.396 120.842 172.396 121.899C172.396 122.96 172.199 123.871 171.805 124.634C171.414 125.396 170.848 125.981 170.109 126.388C169.374 126.796 168.489 127 167.455 127ZM165.849 125.404H167.365C168.074 125.404 168.666 125.275 169.14 125.016C169.614 124.754 169.97 124.365 170.209 123.848C170.447 123.328 170.567 122.678 170.567 121.899C170.567 121.12 170.447 120.474 170.209 119.96C169.97 119.443 169.617 119.057 169.15 118.802C168.686 118.543 168.109 118.414 167.42 118.414H165.849V125.404ZM175.609 127H173.641L177.225 116.818H179.502L183.092 127H181.123L178.403 118.906H178.324L175.609 127ZM175.674 123.008H181.043V124.489H175.674V123.008ZM183.398 116.818H185.481L187.972 121.322H188.071L190.562 116.818H192.645L188.941 123.202V127H187.102V123.202L183.398 116.818ZM200.214 127V128.437H193.637V127H200.214ZM201.801 127V125.668L205.335 122.202C205.673 121.861 205.955 121.558 206.181 121.293C206.406 121.027 206.575 120.771 206.688 120.522C206.8 120.273 206.857 120.008 206.857 119.727C206.857 119.405 206.784 119.13 206.638 118.901C206.492 118.669 206.292 118.49 206.036 118.364C205.781 118.238 205.491 118.175 205.166 118.175C204.832 118.175 204.538 118.245 204.286 118.384C204.034 118.52 203.839 118.714 203.7 118.966C203.564 119.218 203.496 119.518 203.496 119.866H201.741C201.741 119.219 201.888 118.658 202.183 118.18C202.478 117.703 202.884 117.334 203.401 117.072C203.922 116.81 204.518 116.679 205.191 116.679C205.874 116.679 206.474 116.807 206.991 117.062C207.508 117.317 207.909 117.667 208.194 118.111C208.482 118.555 208.627 119.062 208.627 119.632C208.627 120.013 208.554 120.388 208.408 120.756C208.262 121.124 208.005 121.531 207.637 121.979C207.273 122.426 206.761 122.968 206.101 123.604L204.346 125.389V125.459H208.781V127H201.801ZM214.959 127.194C214.141 127.194 213.438 126.987 212.851 126.572C212.268 126.155 211.819 125.553 211.504 124.768C211.193 123.979 211.037 123.029 211.037 121.919C211.04 120.809 211.198 119.864 211.509 119.085C211.824 118.303 212.273 117.706 212.856 117.295C213.443 116.884 214.144 116.679 214.959 116.679C215.775 116.679 216.476 116.884 217.062 117.295C217.649 117.706 218.098 118.303 218.41 119.085C218.724 119.867 218.882 120.812 218.882 121.919C218.882 123.033 218.724 123.984 218.41 124.773C218.098 125.558 217.649 126.158 217.062 126.572C216.479 126.987 215.778 127.194 214.959 127.194ZM214.959 125.638C215.596 125.638 216.098 125.325 216.466 124.698C216.837 124.068 217.023 123.142 217.023 121.919C217.023 121.11 216.938 120.431 216.769 119.881C216.6 119.33 216.361 118.916 216.053 118.638C215.745 118.356 215.38 118.215 214.959 118.215C214.326 118.215 213.826 118.53 213.458 119.16C213.09 119.786 212.904 120.706 212.901 121.919C212.898 122.731 212.979 123.414 213.145 123.967C213.314 124.521 213.552 124.938 213.861 125.22C214.169 125.499 214.535 125.638 214.959 125.638ZM224.997 127.194C224.179 127.194 223.476 126.987 222.889 126.572C222.306 126.155 221.857 125.553 221.542 124.768C221.23 123.979 221.075 123.029 221.075 121.919C221.078 120.809 221.235 119.864 221.547 119.085C221.862 118.303 222.311 117.706 222.894 117.295C223.481 116.884 224.182 116.679 224.997 116.679C225.813 116.679 226.514 116.884 227.1 117.295C227.687 117.706 228.136 118.303 228.448 119.085C228.762 119.867 228.92 120.812 228.92 121.919C228.92 123.033 228.762 123.984 228.448 124.773C228.136 125.558 227.687 126.158 227.1 126.572C226.517 126.987 225.816 127.194 224.997 127.194ZM224.997 125.638C225.634 125.638 226.136 125.325 226.504 124.698C226.875 124.068 227.06 123.142 227.06 121.919C227.06 121.11 226.976 120.431 226.807 119.881C226.638 119.33 226.399 118.916 226.091 118.638C225.783 118.356 225.418 118.215 224.997 118.215C224.364 118.215 223.864 118.53 223.496 119.16C223.128 119.786 222.942 120.706 222.939 121.919C222.936 122.731 223.017 123.414 223.183 123.967C223.352 124.521 223.59 124.938 223.899 125.22C224.207 125.499 224.573 125.638 224.997 125.638Z" fill="white"/>
</g>
<defs>
<clipPath id="clip0_56_18781">
<rect width="393" height="852" fill="white"/>
</clipPath>
</defs>
</svg>
