<svg width="393" height="852" viewBox="0 0 393 852" fill="none" xmlns="http://www.w3.org/2000/svg">
<g clip-path="url(#clip0_28_13521)">
<rect width="393" height="852" fill="#03174C"/>
<path d="M26.8545 255.232C-18.3524 255.232 -55 218.585 -55 173.378C-54.9999 139.665 -34.6184 110.714 -5.50585 98.1709L-5.50584 -20L408.494 -20L408.494 94.9658C431.067 97.6927 448.559 116.913 448.56 140.222C448.56 165.4 428.148 185.812 402.97 185.812C385.997 185.812 371.192 176.536 363.344 162.778C356.222 166.25 348.221 168.197 339.766 168.197C334.792 168.197 329.975 167.522 325.402 166.261C311.486 185.63 288.762 198.245 263.092 198.245C249.02 198.245 235.834 194.453 224.498 187.837C217.681 201.384 203.655 210.679 187.455 210.679C175.472 210.679 164.678 205.591 157.111 197.46C146.804 212.924 129.205 223.112 109.227 223.112C103.769 223.112 98.4887 222.352 93.4863 220.932C78.6399 241.697 54.3279 255.232 26.8545 255.232ZM160.049 138.149L159.764 138.149C159.794 138.206 159.826 138.261 159.856 138.317C159.92 138.261 159.985 138.206 160.049 138.149Z" fill="#1F265E"/>
<circle cx="68.5526" cy="39.63" r="25.37" fill="#D3D4DE"/>
<circle cx="59.7907" cy="27.9256" r="4.65732" fill="#C5C6D0"/>
<circle cx="79.0209" cy="39.4158" r="6.75236" fill="#F1F1F3"/>
<path d="M82.3033 54.3305C84.3276 54.3305 86.1429 55.2223 87.3805 56.6332C84.381 59.9525 80.5167 62.4745 76.1422 63.8442C75.7638 63.001 75.5514 62.0665 75.5514 61.0824C75.5516 57.3535 78.5744 54.3307 82.3033 54.3305Z" fill="#C5C6D0"/>
<circle cx="62.8095" cy="55.6243" r="3.01873" fill="#C5C6D0"/>
<circle cx="85.7733" cy="30.2545" r="25.37" fill="#1F265E"/>
<path d="M19.9675 73.9294C19.9675 73.9294 21.3394 81.0633 27.4882 79.4478C27.4882 79.4478 22.3299 83.3989 24.3108 88.07C24.3108 88.07 21.9591 82.7845 16.6683 83.0442C16.6683 83.0442 21.2176 81.5558 19.9675 73.9294Z" fill="#FCFCFC"/>
<path d="M358.235 21.1977C358.235 21.1977 359.607 28.3316 365.755 26.7161C365.755 26.7161 360.597 30.6672 362.578 35.3384C362.578 35.3384 360.226 30.0529 354.935 30.3125C354.935 30.3125 359.485 28.8242 358.235 21.1977Z" fill="#6D75B0"/>
<path d="M20.1898 134.167C20.1898 134.167 21.1295 139.053 25.3409 137.947C25.3409 137.947 21.8079 140.653 23.1646 143.852C23.1646 143.852 21.5539 140.232 17.9301 140.41C17.9301 140.41 21.0461 139.39 20.1898 134.167Z" fill="#6D75B0"/>
<path d="M380.578 72.1838C380.578 72.1838 376.369 74.335 378.494 77.8836C378.494 77.8836 375.09 75.3775 372.531 77.4625C372.531 77.4625 375.406 75.0344 374.284 71.7759C374.284 71.7759 376.039 74.3483 380.578 72.1838Z" fill="white"/>
<path d="M33.517 124.148C33.517 124.148 34.4566 129.034 38.6681 127.928C38.6681 127.928 35.135 130.634 36.4918 133.833C36.4918 133.833 34.8811 130.213 31.2573 130.391C31.2573 130.391 34.3732 129.372 33.517 124.148Z" fill="#6D75B0"/>
<path d="M400.449 103.832C400.449 103.832 396.241 105.983 398.366 109.531C398.366 109.531 394.962 107.025 392.402 109.11C392.402 109.11 395.278 106.682 394.156 103.424C394.156 103.424 395.911 105.996 400.449 103.832Z" fill="#6D75B0"/>
</g>
<defs>
<clipPath id="clip0_28_13521">
<rect width="393" height="852" fill="white"/>
</clipPath>
</defs>
</svg>
